<svg id="eHMGzLAFtc81" xmlns="http://www.w3.org/2000/svg" xmlns:xlink="http://www.w3.org/1999/xlink" viewBox="0 0 1920 1280" shape-rendering="geometricPrecision" text-rendering="geometricPrecision">
                    <g transform="matrix(1.051982 0 0 1.09816-49.894023-87.472517)">
                        <path d="M122,612.9c61.615517,13.638422,144.078251-31.091538,167.2-85.5c28.877972-61.935604,61.713686-108.244644,78.3-110.4.538804-7.68884,6.867026-16.025596,19.9-16.6c22.33325-49.123603,75.222746-125.352342,144.7-144.9c40.073397-37.083073,86.807604-101.512096,117.4-74.6c32.561304-31.793329,97.692595-57.717048,133.9-35.8c37.439285-13.423772,79.050329-7.49745,87.9,7.6" fill="none" stroke="#494949" stroke-width="4" stroke-miterlimit="3"/>
                        <path d="M777.8,142.3c7.508595,2.453588,7.344365,20.206779-6.4,15.2" fill="none" stroke="#494949" stroke-width="4" stroke-miterlimit="3"/>
                        <path d="M870.2,151.2c2.599506,3.292851,9.94093,8.422139,15,10.1c39.602477,24.851757-5.185034,72.495526-24.8,40.2-6.669912-10.981835,6.64712-23.064141,14.7-11" fill="none" stroke="#494949" stroke-width="4" stroke-miterlimit="3"/>
                        <path d="M122,612.9c-9.698785-2.234567-35.793111-4.468312-52.9-5.338208" transform="translate(.2 0.038208)" fill="none" stroke="#494949" stroke-width="4" stroke-miterlimit="3"/><path d="M870.2,185.7c-11.320478-22.172256-39.616674-23.842077-56.2-15.7c23.924941-6.582741,58.472375,20.408134,39,45-24.812817,9.943286-25.718962-21.263168-10.5-10.1" fill="none" stroke="#494949" stroke-width="4" stroke-miterlimit="3"/>
                        <path d="M841.7,203.1c.377522-22.667953-31.853053-16.688523-46.3-10.7" transform="translate(.01 0.258502)" fill="none" stroke="#494949" stroke-width="4" stroke-miterlimit="3"/>
                        <path d="M896.7,201.1c18.093206-.831969,57.725619,25.710486,33.8,45.740234-12.415712,4.798118-20.392417-5.203275-16-16.240234-9.825274-16.718284-49.108769-20.6704-76.9-11.3-4.66284-1.285684-14.833011-2.375171-20.3-2.3" fill="none" stroke="#494949" stroke-width="4" stroke-miterlimit="3"/>
                        <path d="M972.4,220.414215c-9.391557.537257-26.971001,4.677893-35.1,8.595346" fill="none" stroke="#494949" stroke-width="4" stroke-miterlimit="3"/>
                        <path d="M931,217.639508c40.518825-26.855829,94.635363-19.84614,101,19.160492-.300333,34.083962-35.979319,38.083594-39.7,15.870117.546412-12.25634,10.540637-15.871541,20.1-6.970117c3.430796-6.924435-3.447728-17.260535-16-20.2" fill="none" stroke="#494949" stroke-width="4" stroke-miterlimit="3"/>
                        <path d="M1032,237.7c6.477804-.190397,18.038264,9.627945,23,22.7c26.480592,15.502614,11.132352,50.62004-10.2,39.7-10.216864-5.975155-7.16225-22.19971,4.7-16-1.076792-1.137102-2.917668-2.743945-5.3-2-.472313-7.719534-7.312789-15.34554-12.2-18.1" fill="none" stroke="#494949" stroke-width="4" stroke-miterlimit="3"/>
                        <path d="M837.6,219.1c50.517233,20.849776,34.141141,67.109299,21.4,64-17.14675,3.010262-19.896534-27.07999-1-17.7c1.927106-7.452711-3.2428-18.317758-9.6-22.1" fill="none" stroke="#494949" stroke-width="4" stroke-miterlimit="3"/>
                        <path d="M889.8,236.8c10.632154,1.870096,30.813324,14.625046,32.152699,34.8-14.437958-5.932738-11.087524,23.599701,11.847301,9.4c8.54264-11.119184,1.181257-24.841759-4.3-33.7" fill="none" stroke="#494949" stroke-width="4" stroke-miterlimit="3"/>
                        <path d="M946.3,261.9c10.699355,2.834173,28.362013,20.897628,34.6,46.1-16.614347-6.041041-11.551356,21.029409,4.433008,16.8c10.20299-1.643737,18.587948-20.962484,6.966992-34.5c8.449934,7.751351,19.689041,24.967591,16.7,45.7-18.924218-8.838446-11.953522,24.507393,5.5,14.6c12.192614-7.937181,9.368545-32.615575,2-47.9" fill="none" stroke="#494949" stroke-width="4" stroke-miterlimit="3"/>
                        <path d="M1066.5,293.7c18.406853,17.550264,21.996694,43.623527,8.428626,52.5-6.915331,13.352223-18.551206,14.04995-23.528626,3.9-.892261-6.035874,4.471745-13.457618,10.6-6.9c2.909372-7.22939.117826-19.395332-3.9-26.5" fill="none" stroke="#494949" stroke-width="4" stroke-miterlimit="3"/>
                        <path d="M1074.928626,346.5c.563376-1.962035.451151-6.312035,0-7.8" fill="none" stroke="#494949" stroke-width="4" stroke-miterlimit="3"/>
                        <path d="M1023,333.3c9.448149,9.469124,14.163844,34.258716,10.5,49.2-9.359012-17.270429-19.714023,5.771254-8.5,13.9c6.215078,5.348892,16.077424,1.703744,21-3.1c10.227969.841472,18.236675-16.917457,15.5-36.345715" fill="none" stroke="#494949" stroke-width="4" stroke-miterlimit="3"/>
                        <path d="" fill="none" stroke="#494949" stroke-width="4" stroke-miterlimit="3"/>
                        <path d="" fill="none" stroke="#494949" stroke-width="4"/>
                        <path d="M1005.3,404.6c4.972308,24.339729-4.072377,50.776107-17.4,53.7-18.659761-8.825745-19.482638,16.779814-6.3,20.2c10.273137,5.055972,29.394296.27727,38.55387-16.1c5.15556-2.71638,11.973056-11.14451,13.922797-16.645204c1.847264-1.62622,6.941925-4.236699,9.423333-2.854796c2.361063-6.605967-1.331137-15.856621-6-19.3-.23522,8.55783-2.472891,23.75783-5.5,30.4c5.397659,15.995568,35.105707,7.925077,26.3-23.2c9.210345,6.737203,16.167858,25.613348,11.4,39.3-14.216945-15.37864-23.070821,6.774761-14.7,16.7c13.962263,11.952538,45.557373,9.252828,44-26.8c12.707934-11.510529,3.423529-44.472277-10.341178-54.699999c13.566288,6.939423,34.032577,16.396948,31.341178,35.700001-19.496943,11.427444,5.244827,27.867859,12.1,18.300001c18.333828-19.487719-.200757-53.646884-27.3-63.799999c16.718968,2.174,41.273771-1.279914,39.2,9.100001-14.474889,10.055005,5.842167,24.657487,13.5,9.495062c7.994825-18.167833-5.810952-35.980618-27.5-35.695061-26.453165.186791-54.387097-16.351733-47.544068-44.2" fill="none" stroke="#494949" stroke-width="4"/>
                        <path d="M1005.984612,405.8c-.455975,9.036963-8.019357,18.038246-14.984612,18.2-7.624637,8.422423-22.360021,9.258176-29.5,2.3-18.285958-2.698284-14.428454-35.816719,11.160217-22.3c5.599116-7.720534,6.945003-26.758552,3.539783-37.826623c10.852598-4.162691,13.473823-26.038662,9.3-41.373378" transform="translate(0 0.000002)" fill="none" stroke="#494949" stroke-width="4"/>
                        <path d="M988.7,394.6c.453119-13.513727-1.963999-31.834859-5.1-36" fill="none" stroke="#494949" stroke-width="4"/>
                        <path d="M957.3,401.4c-21.808881-13.548792-54.053354,4.387859-70.9,21.1-83.308064,89.860053-42.627514,202.100828-23.7,265.9c12.876905,31.435426,37.175152,81.357024,50.9,96.1c5.714329-.453052,16.234147.038401,21,1.3c10.611913-13.391225,43.343734-29.040213,75-26c14.488517-5.73008,42.371658-6.330656,58.7,7.6c19.259955,15.493113,17.098072,45.017882-4.3,51.1-12.486566.965861-16.919739-16.711203.8-18.1c7.756191-19.915874-12.497548-28.176601-27.8-26.4" fill="none" stroke="#494949" stroke-width="4"/>
                        <path d="M914,784.5c-21.027456,1.471204-47.104387,13.489894-52.4,23.9" fill="none" stroke="#494949" stroke-width="4"/>
                        <path d="M905.3,785.5c-23.956228-26.407958-51.919926-76.508414-61.7-102.4" fill="none" stroke="#494949" stroke-width="4"/>
                        <path d="M977,389.2c-23.634188-16.01896-66.062489-8.349348-91.3,8.899999-31.893205,23.407777-58.643342,73.54682-61.7,124.2" transform="translate(0 0.000001)" fill="none" stroke="#494949" stroke-width="4"/>
                        <path d="M944.146179,306.1c7.684661,5.62098,17.108771,33.321113,12.453821,49.2-8.731891-15.764836-20.867109,1.455341-10.800003,12.8c7.232511,6.436412,17.642116,5.616184,22.400001.7c1.682217-1.719227,5.468469-3.485728,8.199999-2.626623" transform="translate(.000003 0)" fill="none" stroke="#494949" stroke-width="4"/>
                        <path d="M745.9,513.2c-1.616435-5.79862-3.065884-17.39862-2.9-23.2" fill="none" stroke="#494949" stroke-width="4"/>
                        <path d="M752.5,420.9c-3.821842,9.511979-7.815629,30.261979-8.7,41.5" fill="none" stroke="#494949" stroke-width="4"/>
                        <path d="M806,438.2c3.492114-9.00322,12.358734-25.07712,18.7-32.026953" transform="translate(0 0.000001)" fill="none" stroke="#494949" stroke-width="4"/>
                        <path d="M817.7,611c-11.499812-46.22576-13.433939-120.197555-2.7-147c6.160074-26.578389,36.394248-70.310282,72.1-85.5c16.500185-8.000007,45.338199-12.25654,60-8.5" fill="none" stroke="#494949" stroke-width="4"/>
                        <path d="M846.8,382.5c17.155747-18.155231,61.5665-38.054071,98.2-31.9.435826-1.484082,6.223866-2.912404,12.5-2.6" fill="none" stroke="#494949" stroke-width="4"/>
                        <path d="M957.3,336c-6.204989-1.995396-19.131221-4.342931-25.9-4.6c2.239262-3.420062,2.046376-11.543436,1.3-16.4" fill="none" stroke="#494949" stroke-width="4"/>
                        <path d="M891.5,340.2c4.071925-1.318917,10.366214-3.650059,11.9-4.8" fill="none" stroke="#494949" stroke-width="4"/>
                        <path d="M795.8,246.6c3.173804,2.152088,9.747363,7.778529,13.3,11.1" fill="none" stroke="#494949" stroke-width="4"/>
                        <path d="M781.8,240c-12.891273-5.604272-43.43573-5.161272-60.8,0c14.649192-3.471598,38.172133-3.992585,48.5,17.7c3.015625,12.948775-7.493434,26.336365-19.1,22.8-11.418546-4.970126-10.42971-21.495901,3.5-18.8-4.391701-9.522545-20.762625-10.065257-31.275757-6.4" fill="none" stroke="#494949" stroke-width="4"/>
                        <path d="M769.5,258.5c17.306456,1.158877,41.832807,16.3154,43.9,44.1l1.6,2.9c2.500785,1.262095,4.895522,4.313148,4.8,6.1" fill="none" stroke="#494949" stroke-width="4"/>
                        <path d="M778.3,275c5.821018-2.241913,14.585009-5.436825,14.2-7.6" fill="none" stroke="#494949" stroke-width="4"/>
                        <path d="M782.4,294.2c5.85658-2.213242,17.601575-8.950754,23.6-13.2" fill="none" stroke="#494949" stroke-width="4"/>
                        <path d="M871.9,258.7c13.154921,9.267531,19.8217,39.990507,13.8,52.9-7.095814,13.162132-17.703554,11.163159-22.8,4.4-2.582404-6.681344-.963524-16.361579,9.5-10.2c2.212835-5.328459.027137-14.43626-2.2-19.4" fill="none" stroke="#494949" stroke-width="4"/>
                        <path d="M883.6,274.7c18.516585,8.690774,28.34968,19.240999,33.4,50.1-3.974219-8.338455-18.361643-.083682-14,10.4c6.870443,9.046519,24.298907,10.612034,29.9-9.5c15.686231-2.886818,15.127209-25.604143.3-44.7" transform="translate(.000001 0)" fill="none" stroke="#494949" stroke-width="4"/>
                        <path d="M887,287.2c.956496-.713064,7.69381-2.133213,12.4-2.9" fill="none" stroke="#494949" stroke-width="4"/>
                        <path d="M885.7,311.1c1.941622-4.902521,15.11952-6.563028,25.1-9.6" transform="translate(.3 0)" fill="none" stroke="#494949" stroke-width="4"/>
                        <path d="M845.2,354c22.827094-4.655561,31.001033-21.720913,29.3-32.6" fill="none" stroke="#494949" stroke-width="4"/>
                        <path d="M915.5,317.8c-15.283927,1.947276-36.687366,11.997469-44.2,19" fill="none" stroke="#494949" stroke-width="4"/>
                        <path d="M846.5,353.9c-7.125571-.437101-13.097087-7.294474-10.9-14.05c1.353866-2.932101,9.096853-9.893724,15.7-14.85c2.498774-18.074133-11.194165-37.945459-21.9-46.6" transform="translate(-.8 0.05)" fill="none" stroke="#494949" stroke-width="4"/>
                        <path d="M839.5,334.8c2.314151,1.435699,6.575732,2.186263,8.5,1.2c2.155968-2.295409,3.353353-7.821063,2.6-11" fill="none" stroke="#494949" stroke-width="4"/>
                        <path d="M834.3,340.2c-23.816616,14.210364-50.545468,56.250499-59.9,81.986525-13.263161,33.532207-14.980112,92.161745-11.9,123.813474c4.451127,47.386419,27.176562,125.141158,50.8,152.3" transform="translate(0 0.000001)" fill="none" stroke="#494949" stroke-width="4"/>
                        <path d="M834.6,283.9c7.714135,12.390967,6.837205,32.692339-4.1,40.1-11.808111,13.032151-28.222975,10.69439-29.6-6-1.488171-8.328281,5.375751-15.152733,13.1-14.3" transform="translate(-.197144 0)" fill="none" stroke="#494949" stroke-width="4"/>
                        <path d="M847,303.7c-3.211192,2.711333-7.88643,6.286731-8,4.9" fill="none" stroke="#494949" stroke-width="4"/>
                        <path d="M765.7,388.9c7.157278-15.683,29.328024-44.03532,43.8-57" fill="none" stroke="#494949" stroke-width="4"/>
                        <path d="M845.2,354.1c-27.534345,23.186071-57.569404,67.595718-59.8,88.8-10.807419,43.97498-8.317753,116.985314-.8,151.8c2.182862,24.997282,23.814995,83.388535,49.2,121c12.651119,19.407611,45.195956,54.808133,64.5,71.3" fill="none" stroke="#494949" stroke-width="4"/>
                        <path d="M796.5,566.6c7.588427,43.690857,13.021032,118.240068,93.6,212.8" fill="none" stroke="#494949" stroke-width="4"/>
                        <path d="M680.6,267c13.267553-8.84328,43.698911-10.468408,47.9,19.7-2.319506,16.501576-15.720091,20.968953-25.5,13.8-6.378829-7.520611-.871004-18.870448,10.9-12-8.392708-13.771305-26.164392-8.374879-36.3.2c19.735464,8.331933,27.863713,34.171861,8.8,37.3-7.586734,13.012751-21.207765,11.650421-28.4,3.9-3.243252-8.760134,3.146267-18.233419,14-11-7.051339-12.218996-29.896391-12.602525-44.2-7.1-21.186619.568291-43.63998,12.03649-56.4,32.3-17.099843.390052-33.853001,16.304723-35.3,30.4-17.364973-2.336324-42.67716,12.371246-51.7,27.5" fill="none" stroke="#494949" stroke-width="4"/>
                        <path d="M721.3,269.933663c20.62389-2.72595,38.612111,17.543521,39.9,36.666337" transform="translate(0 0.000001)" fill="none" stroke="#494949" stroke-width="4"/>
                        <path d="M666,288.7c3.576816.621501,9.786447.780518,12.3,0" fill="none" stroke="#494949" stroke-width="4"/>
                        <path d="M701,290.8c-2.094141,3.090309-6.314743,8.121394-8.9,9.8" fill="none" stroke="#494949" stroke-width="4"/>
                        <path d="M743.3,320.6c3.964392-12.18213-5.275399-28.228362-14.8-34.4" fill="none" stroke="#494949" stroke-width="4"/>
                        <path d="M742,303.7c-22.692221,19.806647-42.105041,67.016334-44.4,93.8" fill="none" stroke="#494949" stroke-width="4"/>
                        <path d="M743.8,315c-15.443269-.043196-19.894876,15.797424-5.3,23.2c8.579447,2.986857,23.203957-3.131315,26.1-16.8c7.205188-1.079009,16.053955-11.028922,16.4-22.2c4.654047-11.075097-1.916553-28.332548-11.3-35.2" fill="none" stroke="#494949" stroke-width="4"/>
                        <path d="M734.1,291.3c-15.62161,11.330556-35.735288,46.832161-42.6,69.2" fill="none" stroke="#494949" stroke-width="4"/>
                        <path d="M665.6,370c2.574639-11.717736,7.641088-30.155714,12.5-35.8" fill="none" stroke="#494949" stroke-width="4"/>
                        <path d="M601.8,345.1c3.293507-10.763251,32.271643-21.601892,38.2-5.2-12.180556-7.927348-15.688798-.13906-10.2,10.2c8.636782,5.570762,21.201882,3.789975,22.8-16.3-2.842709-13.110707-16.331107-20.718641-25.2-22" fill="none" stroke="#494949" stroke-width="4"/>
                        <path d="M710.3,600l-15.5-41.4c17.94844-3.282207,30.870229-25.588919,17.4-51.7c10.113411-14.503463,5.075313-33.89665-11.7-38.2-6.779821-24.587465-38.919055-33.440505-61.7-24.2c5.138393-1.526743,12.855552-3.809585,16-4c5.319475-7.059009,17.201367-12.896956,24.6-9-2.55223,2.250051-3.470434,8.340541-2.5,12c4.615485,3.736214,13.520993,4.331135,18.1-1.7c8.523772-12.921389-.765876-28.061688-15.6-31.6-16.580609-.932011-29.113148,3.448821-42.9,13.4-13.443689,8.102385-37.597113,6.786628-48.1-4.7-17.232311-17.847104-14.062814-41.404915,3.2-48.2c11.582661-5.167611,26.433551-1.427773,27.6,11.8-4.571197-7.379289-10.439806-3.942729-12.75,2.4-2.467452,7.652121,5.383498,14.386783,11.55,14.6c7.174457.596057,17.666333-4.536667,21.7-12.1c10.717472-4.712813,15.614524-21.299855,7.3-34.4c3.262953-9.095453,7.985709-21.3751,9-23-.737153-3.903645,2.94777-12.894122,8.1-18.2" fill="none" stroke="#494949" stroke-width="4"/>
                        <path d="M592.4,370.5c-1.947141,12.029673-3.714812,36.379673-3.6,48.7" fill="none" stroke="#494949" stroke-width="4"/>
                        <path d="M602.6,368.1c-2.981832,13.584864-5.506691,42.563041-5.2,57.9" fill="none" stroke="#494949" stroke-width="4"/>
                        <path d="M617,399.5c-1.105688,7.763059-2.208754,22.363059-2,29.2" fill="none" stroke="#494949" stroke-width="4"/>
                        <path d="M639.7,387.8c-1.830557,9.704815-3.908768,28.074368-4,36.7" fill="none" stroke="#494949" stroke-width="4"/>
                        <path d="M661.8,388.9c-1.341006,6.638598-2.569038,18.288598-1.7,23.3" fill="none" stroke="#494949" stroke-width="4"/>
                        <path d="M681.9,396.9c-.825951,3.255482-2.064626,9.905482-2.5,13.3" fill="none" stroke="#494949" stroke-width="4"/>
                        <path d="M624.2,292.6c-31.97065,4.193927-66.634206,33.825411-72,57.5" fill="none" stroke="#494949" stroke-width="4"/>
                        <path d="M738,338.5c-20.06384,22.627638-36.005927,88.72239-32.6,131.6" fill="none" stroke="#494949" stroke-width="4"/>
                        <path d="M672.7,472.5c14.167458,1.736548,31.974091,9.653503,25.9,24.8-3.10179-19.059244-19.105964-6.583564-14,3.9c3.811019,11.31645,16.151885,12.117329,28.2,5.7" fill="none" stroke="#494949" stroke-width="4"/>
                        <path d="M812.9,299.5c-26.186348,12.299451-54.38138,49.113868-65.9,71.8-12.647128,22.380661-23.7243,71.026146-21.8,97.4-1.918805,32.761932,9.245369,97.175909,21.8,128.9" fill="none" stroke="#494949" stroke-width="4"/>
                        <path d="M536,374.5c25.669982,1.190851,36.309076,35.713876,10,42.5" fill="none" stroke="#494949" stroke-width="4"/>
                        <path d="M486.3,428.7c22.480514-14.148957,58.98046-25.144538,72.7,2.6c7.055403,25.76585-14.665749,33.179767-24.2,23.5-4.994997-7.232506,4.007524-21.471531,12.8-9.6-4.119544-29.093569-39.525991-14.504158-45.2-.6c31.160693-1.448997,48.435443,34.097785,22.1,41.5-5.758028,17.041641-21.747756,18.245875-31.7,4.7-4.908486-8.506796,3.402261-23.482319,15.7-11.8c2.671906-8.221469-7.099732-15.066179-20-12.1-3.152013-.166817-17.818603,9.113212-28.5,17.1-5.228628,6.59991-23.638262,14.038927-39.8,13.3" fill="none" stroke="#494949" stroke-width="4"/>
                        <path d="M539.5,415.3c-4.628893-4.839382-6.829665-23.62324,9.115814-14.75-6.440658-15.575047-32.505849-10.405105-46.715814,14.15-1.257032,3.309205-7.138426,8.291765-11,11.3" fill="none" stroke="#494949" stroke-width="4"/>
                        <path d="M716,613.6c2.946924,7.12848,9.37819,20.67848,13,27.1" fill="none" stroke="#494949" stroke-width="4"/>
                        <path d="M804.3,741c-17.880459-15.771066-47.126784-52.94821-59.1-74" fill="none" stroke="#494949" stroke-width="4"/>
                        <path d="M399.9,497.3c-17.777354,1.031428-33.934694,13.026079-34.2,23.1c4.843724-2.736151,19.123027-3.413743,29.8-.3c20.826864-14.984465,63.930812,18.824285,46.4,51.7c2.125924,3.596941.813972,8.841508-1.5,11" fill="none" stroke="#494949" stroke-width="4"/>
                        <path d="M394.8,520.1c28.766414,15.656218,22.092985,40.695594.8,50.6-12.400259,5.143316-24.002087-.665551-25.2-10.7-.62889-6.849178,9.55669-20.242045,17.6-1.4-1.145144-16.056934-15.057378-18.306404-25-13.6-10.001865,3.135232-22.741718,22.267446-29,34.7-2.966279,4.756387-11.197628,8.79369-17,8.4c23.727551-1.685418,40.691906,15.482014,30.6,36.7c5.636007,14.727648-2.896579,31.280252-17.7,32.7-20.023815,1.271704-33.743521-12.425009-27.8-25c9.661447-14.092516,17.343931-10.53997,19.1,1.7c3.221447-12.170939-11.182315-18.056444-22.8-17.7-11.391944-.826695-28.088273,7.770292-33.9,17.2-5.661123-4.15566-19.864125-5.642654-28.1-4.3" fill="none" stroke="#494949" stroke-width="4"/>
                        <path d="M427.6,523.6c-1.53257,13.198131-.357973,36.864888,3.4,47.1" fill="none" stroke="#494949" stroke-width="4"/>
                        <path d="M441.9,572c-13.595336-6.964746-26.839165,14.119278-3.1,22.7c12.290662,3.06699,28.133214-12.8505,29.5-38.8.153483-18.62456-10.525953-43.677112-25.415136-46.8" fill="none" stroke="#494949" stroke-width="4"/>
                        <path d="M395,571.8c1.61432,7.783415,6.285678,22.233415,9.8,28.9" fill="none" stroke="#494949" stroke-width="4"/>
                        <path d="M336.3,576c-1.351427,4.185123,1.163292,13.035123,4.4,17.7" transform="translate(-.341986 0)" fill="none" stroke="#494949" stroke-width="4"/>
                        <path d="M636.7,481c6.877517.54537,21.30747,6.990242,29.7,15.2c3.043173-.737086,12.202381,2.188672,18.5,6.1" fill="none" stroke="#494949" stroke-width="4"/>
                        <path d="M681.25,501.2c1.653187,7.637645,4.502846,22.137645,5.65,29c8.756003,4.763474,8.211013,11.91435,2.9,15c3.639836-.510747,9.060754-3.714519,9.8-11.2.626049-7.3648-3.308477-19.3165-7.7-24" fill="none" stroke="#494949" stroke-width="4"/>
                        <path d="M694.1,558.6c-19.371464-.318769-28.482969-24.138055-7.7-28.4" fill="none" stroke="#494949" stroke-width="4"/>
                        <path d="M666.4,496.2c8.917955,9.46874,11.02431,27.26874-.4,35.6-11.501521,4.71119-19.711016-.304669-20.2-7.2-1.266882-6.475384,13.134121-12.959259,11.3,1.6c8.081122-5.685652,2.986423-13.907444-.6-19.3-6.616518-8.224543-19.854332-11.384402-26.7-8.9-5.426946-6.818456-16.758783-14.112542-22.9-16.4" fill="none" stroke="#494949" stroke-width="4"/>
                        <path d="M629.8,498c7.365627,11.555924,10.633214,32.699502.6,44.5-1.867399-.46111-4.13757,2.918719-5.8,4.4-1.296162,1.43719-5.446291,4.807215-8.1,6.7-8.543693,4.449686-18.534583-.477181-21.3-7.6-1.715387-4.892596-.356826-12.963867,5.8-15.8c3.159321-1.108499,7.316483,1.483296,8.4,5c3.153618-20.784381-11.456222-33.410421-23.9-34-2.597708-9.519396-14.285353-15.26102-21.9-17.2" fill="none" stroke="#494949" stroke-width="4"/>
                        <path d="M595.8,504.1c2.01946,9.51132,3.652636,23.454779,5.7,26.9" fill="none" stroke="#494949" stroke-width="4"/>
                        <path d="M484.1,516.9c18.304071,3.431511,36.461676,21.559107,29.4,44-5.383006,11.239065-18.208228,12.048809-21.9,1.2-.501761-5.077255,1.924355-10.995169,10.5-7.6" fill="none" stroke="#494949" stroke-width="4"/>
                        <path d="M499,523.1c4.468744,3.188223,14.847696,1.116696,20.757905-1.1c8.707053-5.18526,21.288028-10.577514,30.342094-6.8c5.922279,2.579493,5.892392,8.479493,2.899999,11.8-7.030898-7.322404-13.915956-3.267839-14.4,6.534424-.033977,9.29199,12.669384,11.985768,24.2,6.965576c18.772263-7.347804,26.452241-27.34733,22.7-39.3" transform="translate(.000002 0)" fill="none" stroke="#494949" stroke-width="4"/>
                        <path d="M513.8,542.499997c1.132401,1.899843,5.957339,4.237374,10,4.65c11.552387,6.28393,28.062383,24.271273,28.9,47.85928c1.568996,13.420877-1.867528,31.801971-15.7,30.990722-16.752539-5.414759-11.528699-20.387738-1.7-22.200001c1.978203-6.620776-1.192122-17.860613-4.7-23.300001" transform="translate(0 0.000003)" fill="none" stroke="#494949" stroke-width="4"/>
                        <path d="M519.757907,521.6c-.132419,6.553866,2.299413,19.398473,4.442093,25.9" transform="translate(.000001 0)" fill="none" stroke="#494949" stroke-width="4"/>
                        <path d="M413,517.5c-1.670692,42.098388,13.587028,97.000674,27.4,115.9" fill="none" stroke="#494949" stroke-width="4"/>
                        <path d="M450.7,593.4c6.729378,28.900743-13.691552,51.356963-27.5,41.3" fill="none" stroke="#494949" stroke-width="4"/>
                        <path d="M424.2,635.5c13.120618-3.485157,8.192927-14.362128.9-15.4-15.120011-.939103-16.862271,16.091937-8.6,24.2c10.221081,13.359389,32.611775,8.05055,44.7-8.8c7.075121-9.014774,10.229479-24.644489,10-32.9c4.59468-9.867699,15.855508-9.680711,17.3.6" fill="none" stroke="#494949" stroke-width="4"/>
                        <path d="M470.2,612.938208c5.822124,10.615763,20.97413,11.172623,30.2,1.761792c21.302165-5.09301,17.590092-38.927963,13.3-54" fill="none" stroke="#494949" stroke-width="4"/>
                        <path d="M483.4,621.2c3.272277,5.806178,1.808705,13.619655-1,16.8.838247,2.082937,1.135127,6.982937,1,9.8" fill="none" stroke="#494949" stroke-width="4"/>
                        <path d="M482.4,638.2c-12.227177-4.701315-21.249099,3.439775-17,17.5c3.73205,9.624219,18.898427,11.437862,30.479468,3.3c3.329055-.651042,9.37094-1.449877,12.14966-1.4L516,652.7c9.904377-3.62738,20.593379-16.784475,21.4-26.3" fill="none" stroke="#494949" stroke-width="4"/>
                        <path d="M463,685.8c14.4975,28.110164,46.627754,77.20008,66.6,97.4" fill="none" stroke="#494949" stroke-width="4"/>
                        <path d="M497.5,659c10.20007,30.129868,46.711796,85.139436,73.9,109.8" fill="none" stroke="#494949" stroke-width="4"/>
                        <path d="M589,771.4c-29.887951-29.523441-72.531977-85.874934-80.5-113.9" fill="none" stroke="#494949" stroke-width="4"/>
                        <path d="M618,780.4c-33.637345-33.136198-80.810567-100.00249-89.9-135.4" fill="none" stroke="#494949" stroke-width="4"/>
                        <path d="M544,624.2c7.634828,33.543884,42.823129,92.71136,69.4,118.8" fill="none" stroke="#494949" stroke-width="4"/>
                        <path d="M567.8,620.1c14.140118,43.294681,59.848128,120.853044,98.2,154.5" fill="none" stroke="#494949" stroke-width="4"/>
                        <path d="M563.6,540.05c2.331174,33.422987,28.474602,101.78564,49.8,137.15c13.036288,24.404236,47.615375,70.512044,67.7,93" fill="none" stroke="#494949" stroke-width="4"/>
                        <path d="M664.1,710.5c10.984545,16.334939,35.623662,44.830601,49.8,56.6" fill="none" stroke="#494949" stroke-width="4"/>
                        <path d="M704.6,708.7c11.748128,14.202886,36.905496,40.743676,50.3,53.1" fill="none" stroke="#494949" stroke-width="4"/>
                        <path d="M606.9,555.9c9.408815,59.727058,64.885575,164.177611,115.724243,207.6" fill="none" stroke="#494949" stroke-width="4"/>
                        <path d="M630.2,542.5c2.8101,41.357925,33.512904,115.249674,59.3,148.8" fill="none" stroke="#494949" stroke-width="4"/>
                        <path d="M650.2,531.1c-.436501,55.437083,59.316071,170.565691,133.6,232.9" fill="none" stroke="#494949" stroke-width="4"/>
                        <path d="M666.4,531.8c9.408549,67.176529,78.310218,176.837778,130.1,225.1" fill="none" stroke="#494949" stroke-width="4"/>
                        <path d="M756.6,622.4c21.22605,55.028591,83.056356,141.477377,129.8,168.6" fill="none" stroke="#494949" stroke-width="4"/>
                        <path d="M348.8,558.6c2.240032,26.259268,18.4054,71.697076,30.3,93.160193" transform="translate(0 0.000001)" fill="none" stroke="#494949" stroke-width="4"/>
                        <path d="M349.9,633.7c7.223234,19.739013,30.232318,59.839013,45.7,80.2" fill="none" stroke="#494949" stroke-width="4"/>
                        <path d="M439.2,798.7l8.417188,8.23584" fill="none" stroke="#494949" stroke-width="4"/>
                        <path d="M285.5,618.5c-2.298387,16.742311,4.169346,47.789356,13.5,62" fill="none" stroke="#494949" stroke-width="4"/>
                        <path d="M265,634.2c16.360896,12.578795,14.872807,29.513862,1.9,35.2-1.819155,13.050312-15.402956,21.715288-27.3,17.1-7.09579-4.992551-9.307656-16.421438-4.1-22.9c2.686916-2.656838,8.440292-4.215625,13.1.6-5.696764-18.915274-40.550766-13.397396-54.6,1.5-32.603018-3.840994-61.272846,21.531635-67,43.5-14.463609-6.830298-39.606976-3.661829-50,8" fill="none" stroke="#494949" stroke-width="4"/>
                        <path d="M229.5,643.4c-21.315534-4.581338-41.724355,10.213902-49.7,22.4" fill="none" stroke="#494949" stroke-width="4"/>
                        <path d="M500.4,814.8c6.679586,7.179158,23.540054,20.444357,34.1,26.2" fill="none" stroke="#494949" stroke-width="4"/>
                        <path d="M370.4,824L382,834.4" fill="none" stroke="#494949" stroke-width="4"/>
                        <path d="M475.5,664.1c16.857063,46.476576,68.840327,122.843901,107.4,150.7" fill="none" stroke="#494949" stroke-width="4"/>
                        <path d="M305.4,775.5c6.432966,19.442844,40.348485,53.126637,65,68.5" fill="none" stroke="#494949" stroke-width="4"/>
                        <path d="M304.9,800.9c12.08561,13.391276,36.011319,36.106812,50.5,45.1" fill="none" stroke="#494949" stroke-width="4"/>
                        <path d="M298.3,823.45c7.617657,8.877152,25.95224,22.621423,36.7,27.45" fill="none" stroke="#494949" stroke-width="4"/>
                        <path d="M419.7,863.8c9.320026,13.9375,11.260608,33.536806-8.5,37.5-9.98309-.954606-15.537661-12.895626-3.6-18.7-10.748784-25.332315-55.237021-17.775122-68.8-9.2" fill="none" stroke="#494949" stroke-width="4"/>
                        <path d="M266.3,672.5c.941972,4.750171,4.851914,13.998751,7.8,18.5" fill="none" stroke="#494949" stroke-width="4"/>
                        <path d="M276.772034,622.4c-1.474887,16.587896.06548,46.773715,15.227966,72.1" fill="none" stroke="#494949" stroke-width="4"/>
                        <path d="M299,616.5c-3.1087,13.120605,4.292218,45.604293,23.1,71.022791" fill="none" stroke="#494949" stroke-width="4"/>
                        <path d="M327.4,713.6c-25.14186-6.854268-55.320503,19.274184-60.3,48.7" fill="none" stroke="#494949" stroke-width="4"/>
                        <path d="M267.5,760.6c27.720049-26.741112,80.457609-35.53044,94.8-4.1" fill="none" stroke="#494949" stroke-width="4"/>
                        <path d="M300.7,717.4c1.041426,5.332887,6.937391,15.793694,11.4,21" fill="none" stroke="#494949" stroke-width="4"/>
                        <path d="M361.6,755.4c2.761949,7.86969-.580053,17.312689-7.1,18.6c1.163879,15.557953-13.597942,23.790222-26.5,21-9.817217-4.122765-12.837723-15.143368-5.7-22.1c4.57251-3.732499,11.681043-2.782361,13.658014,6c.438551-7.877366-6.26136-16.679132-14.758014-16.5-8.837979-1.208601-23.49292,1.392505-29.2,5.4-16.216681-8.137284-32.617659,4.909101-34.3,23.5-3.867345,22.523427,8.933214,51.690764,22.3,61.4c11.63288-2.84539,30.889481-.0548,37.8,12c21.102359-23.753257,71.264543-28.007228,102.4-.4" fill="none" stroke="#494949" stroke-width="4"/>
                        <path d="M347,762.4c3.181922,2.332361,7.519687,7.744596,7.9,11.6" fill="none" stroke="#494949" stroke-width="4"/>
                        <path d="M292,767.4c10.727904,12.041831,10.0174,28.559955-6.4,31.6-10.714313,3.027769-17.356484-14.639272-4.6-13.8" fill="none" stroke="#494949" stroke-width="4"/>
                        <path d="M277.1,796.6c-4.916072,36.669249,25.224085,56.980146,48.1,61.3" fill="none" stroke="#494949" stroke-width="4"/>
                        <path d="M194,665.7c11.082955,1.54906,20.659488,14.754212,18.8,26.7-.548398,18.602019-14.377438,29.486012-25.6,26.6-13.387758-5.291173-14.338635-21.293444,1.2-19.1-13.411476-10.410086-30.422007,4.241095-36.6,21.8-2.50369,7.624544-4.046398,25.025585-3.8,34.7" fill="none" stroke="#494949" stroke-width="4"/>
                        <path d="M212.6,693.1c20.011972-11.217229,51.747941-6.085848,62.9,12.4c22.031682-17.661863,59.831682-28.647139,75.6-4c10.152369,19.079928-1.783562,33.676184-17.8,34.05-10.489041-1.823637-14.407931-13.671627-8.5-21.95c6.175235-.405459,11.199064,1.343429,8.5,6.2" transform="translate(.000001 0)" fill="none" stroke="#494949" stroke-width="4"/>
                        <path d="M218,652.7c-.712052,10.611688,1.033668,28.626585,5.8,35.7" fill="none" stroke="#494949" stroke-width="4"/>
                        <path d="M275.5,705.7c8.798668,21.515052.667938,44.74577-27.7,39.1-8.418671-3.567136-11.209707-16.200465-6.3-25c6.211031-.603502,15.085703-.548797,12.804126,6.8" fill="none" stroke="#494949" stroke-width="4"/>
                        <path d="M241.5,719.8c-31.041814-2.587067-51.205342,21.01788-50.3,41.3-6.807356,30.347366,9.651732,61.209339,22.4,76.8-27.724529-17.374529-49.155978-64.989193-32.1-101.1" fill="none" stroke="#494949" stroke-width="4"/>
                        <path d="M191.2,761.6c9.837841-12.619336,35.863458-15.998918,37.5,10.4-.524003,11.145558-12.369515,17.534224-22.6,14.5-5.097454-10.183319-1.722489-16.806081,6.5-13.5" fill="none" stroke="#494949" stroke-width="4"/>
                        <path d="M206.1,786.5c4.558613,14.411224,22.699074,34.257159,35.9,40.1c4.238979,10.327148,14.695557,26.809714,22.2,32" fill="none" stroke="#494949" stroke-width="4"/>
                        <path d="M247.4,744.6c-13.601564,16.333977-13.166092,58.197989-5.4,82.7" fill="none" stroke="#494949" stroke-width="4"/>
                        <path d="M223.5,791.7c2.483999,5.464764,9.614887,13.533876,14.6,15.8" fill="none" stroke="#494949" stroke-width="4"/>
                        <path d="M214.7,725c5.725708,12.03187,17.522034,32.059932,24.5,39.3" fill="none" stroke="#494949" stroke-width="4"/>
                        <path d="M342.2,652.011395C356.893096,686.694935,401.716615,747.390283,431,774" transform="translate(0 0.000001)" fill="none" stroke="#494949" stroke-width="4"/>
                        <path d="M330.2,658.6c12.650377,35.488837,61.585647,101.585525,99.2,132" fill="none" stroke="#494949" stroke-width="4"/>
                        <path d="M126.5,708.7c19.376805,16.890869,16.67322,38.735533-1.5,44.9-14.186247-.455729-17.181852-16.770351,1.2-15.2-13.310361-21.242043-32.236289-10.325663-39.5,2.6-5.027421,7.654032-10.148429,26.933024-9.7,39.1-5.558112,7.948809-9.625774,24.952168-7.7,34.1" fill="none" stroke="#494949" stroke-width="4"/>
                        <path d="M76,781.1c15.723251-24.466789,47.420356-29.647098,63.695114-3.5c6.717738,21.386894-4.073151,34.85658-18.395114,26.4-3.572688-3.29424-6.161349-9.334575,4.1-14.4-7.424161-9.520107-20.637647-4.036299-26.5,10-7.541031,16.499204,9.54379,50.654106,32.1,73.9-5.46881,2.290618-12.58583,8.429942-15.66322,12.1-16.547591-13.165051-50.475095-11.893909-67.900406,0" fill="none" stroke="#494949" stroke-width="4"/>
                        <path d="M129,874c22.400214-8.91908,58.267581-7.330805,70.2,8c7.469945,13.928093,3.306833,28.556245-8.7,29-8.260721-1.994027-11.329356-9.152679-3.3-15.1-9.247221-11.580524-22.873255-10.056654-28.8-2.8c21.741297,14.053916,22.95622,41.860814,4,47.9-11.854671.194943-16.040991-11.715203-4-16.1.351651-14.457227-16.187822-20.553827-30.4-16.1.014986,21.935537-9.608142,28.380071-19,17.3-1.311383-3.960005-.152762-9.383359,4.4-9.9-2.643239-20.983124-31.874385-22.373383-53.2-13.5" fill="none" stroke="#494949" stroke-width="4"/>
                        <path d="M392.5,842.5c14.252639,10.495607,42.588721,28.052566,57.9,34.5" fill="none" stroke="#494949" stroke-width="4"/>
                        <path d="M351.1,788c25.568597,27.191102,81.0018,71.168446,115,85.7" fill="none" stroke="#494949" stroke-width="4"/>
                        <path d="M361.2,768.8c29.042305,40.725511,91.888292,94.682366,126.1,106.2" fill="none" stroke="#494949" stroke-width="4"/>
                        <path d="M199.2,882.3c8.649567-9.748222,32.6585-15.977941,48.1-12.3c18.38623-15.518298,51.33624-28.918253,70.4-6.1c10.69287,22.463624-1.919214,32.97779-17.5,29.5-9.20103-2.640891-9.425539-22.796,4.3-14.1-6.824771-19.892642-29.99025-6.868643-38.2,4.4" fill="none" stroke="#494949" stroke-width="4"/>
                        <path d="M452.8,842.5c13.17445,12.209925,41.662527,29.019541,56.9,34" fill="none" stroke="#494949" stroke-width="4"/>
                        <path d="M462.5,818.1c16.024777,12.215117,48.246925,32.742969,65,40.5" fill="none" stroke="#494949" stroke-width="4"/>
                        <path d="M389.6,599c19.491932,73.244871,101.865721,192.474724,180.8,233.3" fill="none" stroke="#494949" stroke-width="4"/>
                        <path d="M363,545c21.939374,123.464206,86.945189,225.379223,203.7,295.7" fill="none" stroke="#494949" stroke-width="4"/>
                        <path d="M552.5,807c6.537022,5.922847,17.806019,15.293517,23.5,18.1" fill="none" stroke="#494949" stroke-width="4"/>
                        <path d="M487,877.400001c26.271854,16.70042,24.138209,45.252735.7,45.699999-11.417417-1.950056-15.988059-12.186744-7.7-21.000001-12.071493-6.617303-24.60323,1.879534-28.073456,12.199999c9.912223,3.420783,20.470758,18.26322,18.673456,32.4c5.055627,4.168024,10.7443,14.305881,10.65,20.699999-8.860837,12.830413,4.838328,18.673841,14.629468,9c3.226096-9.806096-2.792093-26.078507-9.379468-33.7" transform="translate(0 0.000003)" fill="none" stroke="#494949" stroke-width="4"/>
                        <path d="M487.3,910.4c2.764247-5.944935-2.389506-8.70637-7.7-8" fill="none" stroke="#494949" stroke-width="4"/>
                        <path d="M431,912.3c6.326272-.861276,17.379479.284315,21.6,2.3" fill="none" stroke="#494949" stroke-width="4"/>
                        <path d="M174.3,956c40.147283-33.388624,110.37595-49.619162,139.3-17.3c5.593387,7.81794-.655042,14.187672-7.6,15.8-3.120247-15.146449-16.180581-1.870216-8.5,6.7c13.387671,10.012486,31.805569,4.005683,36.5-13.1c4.695415-17.314989-11.969303-34.477723-27-39.6" fill="none" stroke="#494949" stroke-width="4"/>
                        <path d="M175.6,954.9c22.913092-10.240484,53.243768-1.640249,55.4,30.4-3.247568,16.312318-17.780693,19.562487-28.5,8.7-2.08129-5.859208-1.198882-13.904436,8.5-13.5-5.64746-11.88933-28.968428-12.885297-45.4-4.6-14.25047,5.720808-34.42485,27.971749-42.1,43.6" fill="none" stroke="#494949" stroke-width="4"/>
                        <path d="M639.7,797.4c19.277981,7.487205,23.025412,23.197404,9.8,31.4-6.983724,1.906866-10.920875-4.191847-6.8-13.3-13.359712-11.019171-39.374045,3.751267-29.9,22.5c5.43416,8.477511,26.258496,7.011896,40.7-1c27.485381-16.514239,74.376005-24.153324,94.8,10.7c5.655228,11.174768,2.311133,23.7929-10.5,23-9.833302,8.964136-23.444486,7.993985-27.4-1.4-2.380278-5.618977.557357-13.014887,5.3-15.1c8.41872,1.323985,11.065138,7.610503,7.4,12.1" fill="none" stroke="#494949" stroke-width="4"/>
                        <path d="M736.8,871.3c1.731996-2.77673,2.213899-7.955258,1.2-10.4" fill="none" stroke="#494949" stroke-width="4"/>
                        <path d="M716.7,854.2c-5.670332-4.919519-18.482506-5.135667-25.7,0-3.815493-2.656095-11.553051-6.302868-15.7-6.9" fill="none" stroke="#494949" stroke-width="4"/>
                        <path d="M631,872.878327c24.100683-7.594574,56.621949-8.530497,53.329969,16.621673-14.085708,2.360289-11.582045,13.137303-1.32997,15.899999c20.554033-1.781559,27.113557-32.809533,7.799999-50.9" transform="translate(.000002 0.000001)" fill="none" stroke="#494949" stroke-width="4"/>
                        <path d="M512.8,877.4c12.428331,1.566686,29.078183,11.437504,33,20c34.744779,4.148434,75.532095,33.623659,65.7,79.5-10.286234,14.936678-25.550074,13.884025-24.7-3c.598293-3.537216,4.105555-7.053338,6.8-7.4c1.81848-11.279172-8.1714-25.934775-16.513208-32.2" fill="none" stroke="#494949" stroke-width="4"/>
                        <path d="M651.8,952c-8.856714-5.746141-29.703041-9.809246-41.9-7.7" fill="none" stroke="#494949" stroke-width="4"/>
                        <path d="M673.5,986.8c-11.531119-20.199219-42.812872-35.0628-61.6-34.1" fill="none" stroke="#494949" stroke-width="4"/>
                        <path d="M682.8,1012.882227c-.225038-3.988117-2.316661-11.440905-4.3-14.882227" transform="translate(0 0.000001)" fill="none" stroke="#494949" stroke-width="4"/>
                        <path d="M612.5,967.6c36.545123.583989,70.167027,38.064245,56.9,86.1" fill="none" stroke="#494949" stroke-width="4"/>
                        <path d="M545.1,954.5c14.985346,6.951718,20.091736,40.214968,14.1,63.9" fill="none" stroke="#494949" stroke-width="4"/>
                        <path d="M559.3,1017.3c-17.141475-4.562041-22.303036,11.635301-13.5,21.7c19.017523,9.242752,31.774841-3.72228,35.6-16.3c2.989152-.931319,8.429884-3.216735,12.2-6.9c3.436317-7.495982,6.907575-21.895982,6.551746-28.8" fill="none" stroke="#494949" stroke-width="4"/>
                        <path d="M628.3,970.4c-12.478146,2.59788-26.084539,18.218314-29.65,29.5" fill="none" stroke="#494949" stroke-width="4"/>
                        <path d="M718.6,788.9c18.52139-6.135178,46.636595-12.901553,53.9,13.5-14.914186,15.397739,13.063274,22.212291,13.5,5.6c1.311276-3.683216,1.312846-10.26353-.3-13.1c12.13111-2.660561,30.297451-4.120151,32.3,15.9-12.950737,2.216004-8.630386,11.063688-3,15.3c22.999373,3.62805,28.567376-34.62023,2.1-47.2c8.080314-7.400846,22.244303-7.667679,28.1,3-6.809078,9.262501-.119555,14.83211,9.9,13.5c5.496199-1.672076,8.436886-12.811443,6.4-21.799999-18.470008-26.370765-62.692327-24.870347-87.9-2.5-15.328868-11.483045-48.503222-11.684635-66.3-.9-27.650536-5.772723-59.843459,9.499949-67.6,27.2-31.987411-7.985072-66.582864,17.961464-73.3,46.6-20.713901-.422914-47.220504,16.269318-53,33.4-5.389945-1.881811-17.85045-2.385688-25.2-.6-15.604268-6.055388-46.850902-.586592-62.5,10.5" fill="none" stroke="#494949" stroke-width="4"/>
                        <path d="M826.2,785.5c7.747284,4.715272,22.473792,17.090104,30.8,24.6-8.390549,7.555345-25.956146,15.904555-35.4,15.7" fill="none" stroke="#494949" stroke-width="4"/>
                        <path d="M856.2,810.8c24.398946-12.310008,62.337212-11.483649,73.3,11.1c22.951468-10.296975,54.660567-5.152011,53.5,16-11.884682,2.49917-17.397784,13.142711-8.1,22.3c2.658137,3.552782,11.49281,2.341831,17.1-.6c27.505533-26.869851,1.72016-61.769753-23.2-67.9c10.073311-19.041748,68.503377-20.744528,55.5,9.9-18.408654,3.236271-10.309284,24.429184,6.9,18.8c26.169705-18.313687,13.753784-54.116789-22.2-60.6" fill="none" stroke="#494949" stroke-width="4"/>
                        <path d="M868.5,819.8c13.285662-5.154603,36.840366-5.913057,47,2.75-17.135671,6.895724,13.706152,25.183282,14-.55" fill="none" stroke="#494949" stroke-width="4"/>
                        <path d="M928.7,828c10.480815,3.0242,19.038494,20.471224,13.6,38.8-7.024647,3.426091-12.875879,8.566338-11.3,10.2-12.647394,9.521889-27.313338,7.051769-28.5-6.7c1.10055-6.954323,4.471958-15.485304,15.1-5.3-15.066133-24.870019-47.753111-20.594929-65.8,14.6" fill="none" stroke="#494949" stroke-width="4"/>
                        <path d="M956.6,816.1c-5.110279,6.951907-12.844664,20.08081-14.9,26.4" fill="none" stroke="#494949" stroke-width="4"/>
                        <path d="M950.666345,825.403564c3.232913,5.030322,14.700738,13.566513,21.993872,17.896436" fill="none" stroke="#494949" stroke-width="4"/>
                        <path d="M992.1,859.5c16.134718,13.272136,56.51732,37.679095,80.3,49" fill="none" stroke="#494949" stroke-width="4"/>
                        <path d="M197,1024.7c5.219905-10.689533-5.344671-17.37399-18.9-15-43.340766,10.335849-70.878228,76.944208-65.3,126.4" fill="none" stroke="#494949" stroke-width="4"/>
                        <path d="M230.7,986.8c19.668609,29.260303,7.382291,47.390588-6.9,49.3-16.885201,20.848357-42.370455,19.777573-51.5.4-3.276267-8.718632,1.686812-21.813319,8.203578-27" fill="none" stroke="#494949" stroke-width="4"/>
                        <path d="M225.5,1024.5c.438513,3.557024-.684943,10.07664-2.6,13" fill="none" stroke="#494949" stroke-width="4"/>
                        <path d="M230.7,986.45c25.32823-14.155136,59.093958-12.533502,61.7,16.85-12.685087.520324-10.340617,14.274555-1.5,15.8c25.007608-1.168941,31.475881-37.948293,9.1-47.1c25.617753-6.512177,59.203466,6.505681,59.8,41.7-18.17753-5.062164-14.581272,22.849151,4.15,20.9c30.396025-14.566578,18.693826-55.479565-.95-70.1c13.620062,2.193789,35.248547-2.627341,42.6-11c15.980619-10.177792,34.788388-10.874074,34.8,3.3-17.88084-4.816105-15.928687,8.442063-13.452856,17.7c9.580561,5.754977,24.184391,5.764582,27.952856-5c16.91578-4.517132,14.740318-23.398497-.5-36.8" fill="none" stroke="#494949" stroke-width="4"/>
                        <path d="M322.1,971c-2.435564,3.38766-7.830656,8.740114-11.6,10.3" fill="none" stroke="#494949" stroke-width="4"/>
                        <path d="M255.8,978.1c-7.138483,4.111268-16.021665,15.491359-17.7,22.8" fill="none" stroke="#494949" stroke-width="4"/>
                        <path d="M117,1162.6c-1.481059-3.815762-3.227148-10.377327-2.3-13.6" fill="none" stroke="#494949" stroke-width="4"/>
                        <path d="M152.8,1156.8c-3.357256-5.011869-8.323635-14.99549-9.4-20.5" fill="none" stroke="#494949" stroke-width="4"/>
                        <path d="M140.7,1162.8c-20.058746-30.464067-20.181265-85.11511-9.7-112.3" fill="none" stroke="#494949" stroke-width="4"/>
                        <path d="M141.4,1128.021826c-12.528781-28.215152-7.639894-78.071394,6.7-100.621826" fill="none" stroke="#494949" stroke-width="4"/>
                        <path d="M182.4,1173c-20.272075-25.928441-35.352043-74.488089-34.3-100.8.775919-20.255815,12.538142-43.619118,23.163641-47.2" fill="none" stroke="#494949" stroke-width="4"/>
                        <path d="M172.2,1034.6c-14.503346,13.137892-14.73003,46.064198-9.8,65.6c8.584713,31.248618,36.813358,82.109297,61.1,96" fill="none" stroke="#494949" stroke-width="4"/>
                        <path d="M176.5,1043.4c-14.389364,29.507013,4.477285,94.021656,41.5,129.6" fill="none" stroke="#494949" stroke-width="4"/>
                        <path d="M253.5,1188.1c-39.378127-21.592133-71.676143-85.327378-72.3-124.946777" fill="none" stroke="#494949" stroke-width="4"/>
                        <path d="M272.1,1190.5c-46.521561-26.352481-83.157384-96.62036-79.5-139" fill="none" stroke="#494949" stroke-width="4"/>
                        <path d="M214.7,1044.7c-4.598627,68.540211,54.624478,150.144994,113.2,167.8" fill="none" stroke="#494949" stroke-width="4"/>
                        <path d="M235.5,1059.8c-6.55783,48.210623,54.488654,125.375674,119,155.2" fill="none" stroke="#494949" stroke-width="4"/>
                        <path d="M287.4,1146.5c-33.330437-47.167966-57.179272-129.009605-11.8-165.7" fill="none" stroke="#494949" stroke-width="4"/>
                        <path d="M390.8,962.4c20.354606,18.173793,31.654281,53.599898,16.2,71.2-10.647797,8.704663-29.928714-5.961375-12-16.9c1.811288-14.988878-10.016735-27.538437-18.1-35.1" fill="none" stroke="#494949" stroke-width="4"/>
                        <path d="M436.7,948.9c-12.024329,1.731354-30.170331,14.110423-36.4,24.6" fill="none" stroke="#494949" stroke-width="4"/>
                        <path d="M427.7,957.7c1.751724-2.583462,3.473833-6.481534,3.3-7.7" fill="none" stroke="#494949" stroke-width="4"/>
                        <path d="M411.8,997.2c2.951987-7.365544,9.914976-19.327338,14.837378-23.3" fill="none" stroke="#494949" stroke-width="4"/>
                        <path d="M523.8,956.1c5.075445,8.632456,11.297404,24.634798,5.3,41.7-15.36181,2.609242-19.946777,17.484903-7.6,24.9c6.670614,2.354105,18.028341.285014,22.6-4.6c24.273068-31.840691,4.62143-70.596524-21.5-85.777472c32.695836,3.954202,55.628402,36.341694,50.6,62.277472" fill="none" stroke="#494949" stroke-width="4"/>
                        <path d="M534.2,1003.3c-.771622-2.45116-2.797099-5.828154-5.6-5.5" fill="none" stroke="#494949" stroke-width="4"/>
                        <path d="M521.5,1022.7c-15.39327,16.873613-43.502812,23.797316-56.1,7-20.970458-7.918818-24.445672-33.740238-.4-39.1c8.983562.426515,16.308542,8.269498,13.1,16.8c10.3078-2.131868,20.444232-17.110479,18.3-32.3" fill="none" stroke="#494949" stroke-width="4"/>
                        <path d="M482.4,980.7c-4.856089.958871-13.806089,5.522974-17.9,10" fill="none" stroke="#494949" stroke-width="4"/>
                        <path d="M478.5,958.2c-31.516178,9.072004-52.864805,51.536004-52.3,80.6-.868595,38.134849,38.293655,104.989468,95.6,132.8" fill="none" stroke="#494949" stroke-width="4"/>
                        <path d="M384.3,1128.021826c4.012085,6.396428,13.34397,17.15822,19.7,21.178174" fill="none" stroke="#494949" stroke-width="4"/>
                        <path d="M399.5,1170c1.820599,2.702604,6.258423,6.58331,8.990942,7.6" fill="none" stroke="#494949" stroke-width="4"/>
                        <path d="M286.579651,987.6C258.31318,1008.179836,266.498746,1072.853324,284.4,1113c17.432142,38.720802,68.021735,97.768998,116.999999,111.700745" transform="translate(.000002 0.000001)" fill="none" stroke="#494949" stroke-width="4"/>
                        <path d="M676.9,549.5c-3.528853-1.34597-7.86751-6.912025-9.3-10.5" fill="none" stroke="#494949" stroke-width="4"/>
                        <path d="M292,1018.9c-13.350011,30.406812-.051347,86.723243,20.1,114.1c20.337411,33.416118,73.393694,83.016093,111.1,95.4" fill="none" stroke="#494949" stroke-width="4"/>
                        <path d="M345,981.9c-38.421153,20.829559-44.334951,97.89766-11.7,154.2c19.207416,40.995384,82.378126,85.450046,123.3,94.9" fill="none" stroke="#494949" stroke-width="4"/>
                        <path d="M434,1212c-107.085035-53.372072-125.513643-169.350186-78.5-217.1" fill="none" stroke="#494949" stroke-width="4"/>
                        <path d="M390.8,1163.3c-35.98328-30.53829-50.15111-96.63829-38.1-132.2" fill="none" stroke="#494949" stroke-width="4"/>
                        <path d="M452.5,1155.4c-52.380784-20.032786-91.008699-81.862772-88.9-120.8-4.450745,23.78827,1.10858,67.524753,16.2,87.6" transform="translate(.000001 0)" fill="none" stroke="#494949" stroke-width="4"/>
                        <path d="M416.5,1118c-30.308999-29.229856-47.397496-90.167968-27.3-122.8" fill="none" stroke="#494949" stroke-width="4"/>
                        <path d="M481,1160.1c-44.408246-21.89519-73.787965-87.136481-74-127.2" fill="none" stroke="#494949" stroke-width="4"/>
                        <path d="M493,1039c-5.279424,13.570298-23.442888,28.937306-37.5,29.2c7.764442-8.659999,1.406497-15.439661-8.8-15.6-.992027-9.565538.799682-27.926486,3.349103-36.8" fill="none" stroke="#494949" stroke-width="4"/>
                        <path d="M471.8,1035.4c-2.88812,6.956683-4.191714,21.391689-2.087231,29" fill="none" stroke="#494949" stroke-width="4"/>
                        <path d="M446.8,1052.6c-18.699733,7.882332-5.177291,31.318408,8.7,32.7c14.405485.246905,35.222265-10.107719,42.3-19.9" fill="none" stroke="#494949" stroke-width="4"/>
                        <path d="M455.5,1085.303955c6.628581,14.579929,21.33264,39.215789,34.5,49.696045" fill="none" stroke="#494949" stroke-width="4"/>
                        <path d="M474.3,1081.5c6.906977,18.59817,31.107953,51.764511,48.8,66.2" fill="none" stroke="#494949" stroke-width="4"/>
                        <path d="M482.2,1077.7c8.64051,10.451064,31.282192-.990712,44.9-20.2c8.494422-1.123467,17.804266-10.448051,18.9-18.4" fill="none" stroke="#494949" stroke-width="4"/>
                        <path d="M612.5,1191.3c-47.083192-20.334128-107.175123-74.216668-115.7-110.039502" fill="none" stroke="#494949" stroke-width="4"/>
                        <path d="M643.9,1196.2c-51.820071-20.441366-112.63193-85.943696-123.3-130.1" fill="none" stroke="#494949" stroke-width="4"/>
                        <path d="M632.5,1178.3c-48.300134-25.676488-92.824817-88.80409-94.9-125.3" fill="none" stroke="#494949" stroke-width="4"/>
                        <path d="M664.1,1204.682398c9.166881,4.528331,26.370282,11.847885,34.8,14.24591" fill="none" stroke="#494949" stroke-width="4"/>
                        <path d="M573.05,1050.9c2.093452,40.005756,44.663442,104.906909,84.181897,130.2" fill="none" stroke="#494949" stroke-width="4"/>
                        <path d="M611.5,1114.8c-16.226062-26.63254-23.704259-76.423534-17-100" fill="none" stroke="#494949" stroke-width="4"/>
                        <path d="M615.4,1071.6c-8.214196-26.386204-5.612902-86.274615,38.1-86.3" fill="none" stroke="#494949" stroke-width="4"/>
                        <path d="M666.601443,1005.4c-14.110851,1.934723-23.667322,19.408486-21.801443,33.2" transform="translate(.000001 0)" fill="none" stroke="#494949" stroke-width="4"/>
                        <path d="M662.7,997.5c-33.599731,1.426318-35.632305,51.380461-22.1,88.9c14.36299,52.063169,97.043933,119.767485,161.505738,138.300745" transform="translate(0 0.000001)" fill="none" stroke="#494949" stroke-width="4"/>
                        <path d="M670,1051.6c-10.788009-20.921584-36.370117.137026-27.608642,19.8c4.500872,12.076788,22.261501,15.410228,34.708642,8.8c12.48875,5.529409,31.024799-3.87922,35.4-26.7c25.30755-23.582046,15.639883-82.466194-5.8-91.6" fill="none" stroke="#494949" stroke-width="4"/>
                        <path d="M697.4,973.6c8.237168.931142,14.892241,16.165441,13.9,29.7-11.722888-10.146674-20.033097,8.647186-8.1,13.3c11.912285,3.683338,24.115227-6.646456,22.2-24.4" fill="none" stroke="#494949" stroke-width="4"/>
                        <path d="M629.8,1107.1c6.699754,34.944031,67.94516,91.246227,131.4,110.8-98.98201-13.343303-210.30495-95.663781-207.9-175.8" fill="none" stroke="#494949" stroke-width="4"/>
                        <path d="M703.4,912.7c9.026748-2.578687,42.384435,10.008461,34.7,25.8-16.093074.438828-5.258309,18.027705,6.8,13.4c21.017303-10.748816,10.304726-37.484094-1.911841-41.5c16.265752.898151,37.501033,8.453875,32.211841,26.7-14.73518,2.214911-4.289824,20.484885,4.4,15.5c26.234651-14.846097,6.754817-55.463123-19.1-55.4" fill="none" stroke="#494949" stroke-width="4"/>
                        <path d="M782.529175,907.6c10.333137-7.961095,46.557283-4.433177,40.170825,13.9" transform="translate(.000001 0)" fill="none" stroke="#494949" stroke-width="4"/>
                        <path d="M827.2,896.1c1.863514,2.443522,6.700616,6.859246,9.8,8.8" fill="none" stroke="#494949" stroke-width="4"/>
                        <path d="M791,876.5c23.737075-9.941846,99.503303,27.052537,48.699195,51" fill="none" stroke="#494949" stroke-width="4"/>
                        <path d="M840.3,914.6c4.945735,14.895536-9.150543,23.905384-28.1,18.1-10.732454-7.545377-7.635586-20.169128,2.8-25.7" fill="none" stroke="#494949" stroke-width="4"/>
                        <path d="M905.9,852.7c-35.038658-5.554784-57.090772,39.570202-47.7,86.2" fill="none" stroke="#494949" stroke-width="4"/>
                        <path d="M870.5,932.5c-8.571116-29.803045-2.195158-63.260565,8.588318-73" fill="none" stroke="#494949" stroke-width="4"/>
                        <path d="M887.4,855.315644C864.064367,900.077882,890.385913,986.550756,945.2,1028.2" fill="none" stroke="#494949" stroke-width="4"/>
                        <path d="M898.55,851.70459c-20.751202,35.608922.756352,107.128241,35.25,143.49541c32.58126,42.167417,132.923702,85.522519,208.7,79.3" fill="none" stroke="#494949" stroke-width="4"/>
                        <path d="M716.3,969.9c23.809101,12.763949,54.935088,40.454535,39.771289,80.4-7.290891-15.281663-21.870552-.672593-16.07129,9.2c10.118046,14.550349,29.884792,7.760877,39.599999-18.7c7.322486-19.022755-5.106619-46.428808-18.4-58.4" transform="translate(.000002 0)" fill="none" stroke="#494949" stroke-width="4"/>
                        <path d="M707.8,1041.7c-7.838276,4.846457-4.838976,10.775179,4.4,12.2" fill="none" stroke="#494949" stroke-width="4"/>
                        <path d="M709.4,1064c8.654877,35.270517-2.500141,66.646852-16.65,71.5-.56083-25.321518-24.010857-4.278251-19.25,3.5c16.324197,24.064468,43.188854,9.002008,54-27.4" fill="none" stroke="#494949" stroke-width="4"/>
                        <path d="M672.5,1081.8c3.451013,13.784382,15.003357,39.384382,24.5,51.2" fill="none" stroke="#494949" stroke-width="4"/>
                        <path d="M692.75,1080.8c2.04049,9.743826,9.547119,27.414575,15.65,35.2" fill="none" stroke="#494949" stroke-width="4"/>
                        <path d="M719.8,1130.7c14.990861,4.419479,26.730164-18.98819,29.2-38.6c6.287061-5.180825,10.850189-17.485639,7.071289-25.4" transform="translate(.000001 0)" fill="none" stroke="#494949" stroke-width="4"/>
                        <path d="M717,1134.5c3.574079,4.421609,12.401549,12.594139,17.5,16.5" fill="none" stroke="#494949" stroke-width="4"/>
                        <path d="M716,1224.700745c81.116624,28.85545,253.422656,36.958014,344.753125,23.399255" transform="translate(.000001 0.000001)" fill="none" stroke="#494949" stroke-width="4"/>
                        <path d="M832.3,933.3c44.259215,1.537714,81.140253,40.112925,66.25,82.8-10.068005,20.563151-38.127412,2.973379-15.65-8.2-10.337651-45.249473-55.651458-43.28255-77-35.4c32.594091,11.560646,48.418011,83.954438,11.7,95.3-9.073859,35.528806-33.892111,50.918635-49.1,36.1-6.981573-7.438469-2.398147-18.60315,5.5-23.3c7.72084-.965203,14.21655,2.612585,12,7.8c9.252658-29.980259,4.011416-71.932899-9.6-84.6" fill="none" stroke="#494949" stroke-width="4"/>
                        <path d="M770.5,1056.9c-.906586,6.532861,1.640352,18.106145,5.9,23" fill="none" stroke="#494949" stroke-width="4"/>
                        <path d="M805.512817,1095.5c4.431465,8.896666,18.489149,24.13962,28.087183,30.5" fill="none" stroke="#494949" stroke-width="4"/>
                        <path d="M845.2,1134.5c3.497375,2.627004,9.652893,6.967992,12.311035,8.5" transform="translate(.000001 0)" fill="none" stroke="#494949" stroke-width="4"/>
                        <path d="M732.4,1128.7c15.11415,29.144245,86.114986,74.315305,148.59944,86.3" fill="none" stroke="#494949" stroke-width="4"/>
                        <path d="M744.313672,1111.100374C754.176608,1136.424468,800.339298,1171.826846,833.6,1184.1" fill="none" stroke="#494949" stroke-width="4"/>
                        <path d="M749,1093.2c10.082608,33.928452,73.199055,76.565865,125.2,85.9" fill="none" stroke="#494949" stroke-width="4"/>
                        <path d="M789.7,1108c9.959547,18.81926,48.411713,47.085468,78.8,55.726758" fill="none" stroke="#494949" stroke-width="4"/>
                        <path d="M886.4,1190.5c3.481576,14.899949,16.042354,3.930272,12.15-4.2-7.048699-13.854787-28.716064-7.591499-26.65,13.7c2.424013,24.884074,63.748263,41.719995,105.1,40.250165" fill="none" stroke="#494949" stroke-width="4"/>
                        <path d="M904.6,1214.2c15.42002,18.212049,80.303301,27.524169,124.5,23.8-112.835639,15.010502-269.060731-27.6024-312-85.7" fill="none" stroke="#494949" stroke-width="4"/>
                        <path d="M877.3,1182.859766c-11.607188-11.747353-11.102614-35.245546,1-46.996387c20.342582-13.926257,38.616557-7.705909,35.9,13.43662-6.405646,13.27401-18.179297,7.589167-14.8-5.1-12.321285-.528923-10.685941,20.863112-3.4,22.8c11.527885,6.335293,24.318755-2.193775,29.2-11.2c7.978038-31.058931,43.981031-48.284224,72.3-33.8c11.141627-16.146775,40.575292-26.368244,58.1-23.800001" transform="translate(0 0.000002)" fill="none" stroke="#494949" stroke-width="4"/>
                        <path d="M813.802856,1080.8c8.085664,18.238036,40.723264,45.440922,65.285462,54.4" fill="none" stroke="#494949" stroke-width="4"/>
                        <path d="M818,1039.1c.675809,8.42483.449896,23.236873-.9,29.4" fill="none" stroke="#494949" stroke-width="4"/>
                        <path d="M829.4,1059.7c20.035804,25.691269,73.232172,63.138271,108.4,73.3" fill="none" stroke="#494949" stroke-width="4"/>
                        <path d="M927.1,1110.151978c-31.609394-9.469824-76.444014-44.187669-89.1-69.951978" fill="none" stroke="#494949" stroke-width="4"/>
                        <path d="M1004.1,1114.6c-58.036175-8.645191-115.436721-49.018242-138.7-75.5" fill="none" stroke="#494949" stroke-width="4"/>
                        <path d="M1023.7,1103.7c-80.620276-15.601827-157.645455-76.776981-171.9-117.6" fill="none" stroke="#494949" stroke-width="4"/>
                        <path d="M1040.5,1236.7c6.967928-.058996,19.854759-1.764719,25.726349-3.742639" transform="translate(.000001 0.000001)" fill="none" stroke="#494949" stroke-width="4"/>
                        <path d="M933.5,1181.9c3.098782,16.257517,27.296409,36.040835,52.8,37.028308" fill="none" stroke="#494949" stroke-width="4"/>
                        <path d="M961.5,1160.3c4.157674,1.106732,11.657674,2.206176,15,1.8" fill="none" stroke="#494949" stroke-width="4"/>
                        <path d="M1087.9,1129.5c15.32278.536273,43.908301-.700598,57.1-2.9" fill="none" stroke="#494949" stroke-width="4"/>
                        <path d="M899,1015.2c46.376623,55.136759,177.349865,97.490274,259.6,89.4" fill="none" stroke="#494949" stroke-width="4"/>
                        <path d="M986.176801,1053c29.47976,21.246572,109.781953,40.947834,162.523199,37.6" transform="translate(.000001 0)" fill="none" stroke="#494949" stroke-width="4"/>
                        <path d="M1053.5,1098.2c27.830821,7.648657,29.112585,24.972239,18,34.8-8.340727,2.664478-14.855435-4.600604-7.5-13-9.948481-8.331765-21.161077-4.474051-25.6,1.7c19.463621,8.184373,27.163549,33.269699,11.984887,43.1-11.251312,2.613722-18.796982-8.783026-7.684887-14.8-1.257213-12.278569-18.997897-20.259177-30.7-10c6.510881,15.958614-.359956,26.143069-11.6,22.8-2.60447-1.443857-4.53351-5.694657,1.3-12.8-8.493692-24.811394-43.41779-21.478359-54.3,1.5-12.204029,29.214274,16.738972,56.127534,49.8,59.1c50.157683,6.68057,147.574375-7.872692,196.3-25" fill="none" stroke="#494949" stroke-width="4"/>
                        <path d="M1076.3,1112.6c22.562287,3.321468,68.562287,3.365837,92,.4" fill="none" stroke="#494949" stroke-width="4"/>
                        <path d="M1067.2,1142.75c27.705851.913016,76.488082-1.997195,97.1-7.987915" fill="none" stroke="#494949" stroke-width="4"/>
                        <path d="M985.5,1163.5c48.402463,7.405685,139.904705.945819,182.8-14.3" fill="none" stroke="#494949" stroke-width="4"/>
                        <path d="M953.2,1171.1c68.100694,13.552026,175.129956,3.373387,218.3-15.886535" transform="translate(0 0.000001)" fill="none" stroke="#494949" stroke-width="4"/>
                        <path d="M1170.8,1113.000001c-30.214411-16.988262-37.162597-59.35321-20.2-84.000001c10.251051-13.308662,31.190881-19.291712,43.6-1.3-.638543,13.033826-8.813259,18.494321-17.9,6.7-14.434431,20.575735-.107576,37.868098,15.5,38.6-.586093-10.348838,3.425138-29.629453,18.9-44c21.928577-9.65492,45.90323-3.659677,45.1,15.9-6.332288,12.437485-14.856475,8.585837-17.9-2.7-13.431952-7.013564-21.562036,8.286088-19,20.8c2.545466,9.60775,12.91346,21.22989,21.5,22.303955-2.737343-20.861588,12.528708-47.594448,44.9-46.503955c19.026026,3.149794,29.619977,19.34215,20.6,32.6-7.727199,6.88446-16.329677,4.676899-15-10.4-11.356994-9.800523-22.739892,1.561935-22.5,12.3-.671575,15.460285,14.065334,26.558969,37.5,26.4c24.126771,1.537058,74.900036-8.848581,101.473438-20.15" fill="none" stroke="#494949" stroke-width="4"/>
                        <path d="M1229.4,1040.6c-4.121353,10.727859.081049,28.648638,11.6,35.3" fill="none" stroke="#494949" stroke-width="4"/>
                        <path d="M1170.8,1044.9c7.110638-1.951315,21.434642-2.532338,28.7-1.5" fill="none" stroke="#494949" stroke-width="4"/>
                        <path d="M1170.8,1053.9c6.73126-1.310112,19.114539-2.293231,24.7-1.7" fill="none" stroke="#494949" stroke-width="4"/>
                        <path d="M1268.4,1074.3l22.5-5.8" fill="none" stroke="#494949" stroke-width="4"/>
                        <path d="M1270.4,1083.7l14.9-3.5" fill="none" stroke="#494949" stroke-width="4"/>
                        <path d="M1305,1099.5c12.811324-3.075714,39.448061-12.828433,54-18.9" fill="none" stroke="#494949" stroke-width="4"/>
                        <path d="M1266.5,1097c10.827362,16.791778,59.239482,16.898597,92.5,6.7" fill="none" stroke="#494949" stroke-width="4"/>
                        <path d="M1216,1087.6c15.248401,22.271283,58.592689,45.165981,93,38.726612" fill="none" stroke="#494949" stroke-width="4"/>
                        <path d="M1246,1124.9c11.645937,5.201677,31.458631,12.03259,40.3,10.963379" transform="translate(0 0.000001)" fill="none" stroke="#494949" stroke-width="4"/>
                        <path d="M1210.7,1029.9c5.938727-19.864959,35.367985-42.526164,68.95-38.5c22.218516,10.280429,22.547471,28.70015,9.35,37.6-9.813401,1.316555-14.932828-5.346469-7.5-15.2-12.748599-11.413142-34.971726-2.678026-45.7,10.7" fill="none" stroke="#494949" stroke-width="4"/>
                        <path d="M1254.3,1026.2c6.555594.358913,18.205594-.830729,23.3-3.4" fill="none" stroke="#494949" stroke-width="4"/>
                        <path d="M959.239155,1194.6c62.732069,7.893581,178.005941-6.769109,232.160845-26.2-25.098748-8.385955-34.552505-36.307045-20.6-55.4c12.125556-13.137106,32.585746-16.037046,40.5-2.25c5.396206,15.856061-10.808028,20.875628-13.6,6.85-14.518322-4.276024-10.799866,20.43248,1.8,28.95c8.261676,7.409094,35.39722,7.843683,53.6,1.85c46.294816-16.077709,131.241231-54.058398,169.4-77c36.826469-17.084884,175.238356-111.520015,271.5-183.8" transform="translate(.000001 0)" fill="none" stroke="#494949" stroke-width="4"/>
                        <path d="M1190.5,1168.4c14.875846-3.770691,43.657352-13.14535,57.6-18.7" fill="none" stroke="#494949" stroke-width="4"/>
                        <path d="M1037,1037.1c27.920176,9.262254,80.254421,18.230094,104.8,15.7" fill="none" stroke="#494949" stroke-width="4"/>
                        <path d="M915.1,917.4c2.371431,49.895342,86.497931,119.686092,227.9,126.8" fill="none" stroke="#494949" stroke-width="4"/>
                        <path d="M923,892.6c2.293398,71.342899,116.336659,139.087481,229.1,134.8" fill="none" stroke="#494949" stroke-width="4"/>
                        <path d="M935.3,870.3c-7.495955,42.080473,33.344209,92.82378,74.3,111c40.804915,23.190648,143.533272,38.381583,207.1,34.5" fill="none" stroke="#494949" stroke-width="4"/>
                        <path d="M1194,1027.5l17.817291-.7" fill="none" stroke="#494949" stroke-width="4"/>
                        <path d="M997.2,975.1c23.343067,6.961657,73.984515,15.983037,101.1,18.5" fill="none" stroke="#494949" stroke-width="4"/>
                        <path d="M934.4,878c18.547404,16.388067,79.015404,43.082067,119.1,54" fill="none" stroke="#494949" stroke-width="4"/>
                        <path d="M937,897.4c42.70533,27.998204,152.26811,60.531164,217,67.9" fill="none" stroke="#494949" stroke-width="4"/>
                        <path d="M1114.5,1239.5c114.588726-25.755532,304.087442-108.194386,381.1-166.5" fill="none" stroke="#494949" stroke-width="4"/>
                        <path d="M1309.5,1206.7l36.5-16.2" fill="none" stroke="#494949" stroke-width="4"/>
                        <path d="M1371,1177.197589c36.014964-18.068249,95.993369-50.807576,117.8-66.197589" fill="none" stroke="#494949" stroke-width="4"/>
                        <path d="M1440.5,1150.5c15.720547-7.89925,40.76495-22.202047,48.3-29.5" fill="none" stroke="#494949" stroke-width="4"/>
                        <path d="M1248.1,1166.5c91.039252-31.346346,251.571354-117.406952,319.7-174.2" fill="none" stroke="#494949" stroke-width="4"/>
                        <path d="M1624.1,979.9c-18.901574,13.563404-62.451476,36.97776-87,46.9-31.396374,18.014156-54.891848,67.364835-45.6,99.2c4.658625,24.038816,23.521122,32.673445,37.3,19.1c6.045273-12.338337-2.027572-23.159959-16.8-21.2-8.430177-53.208761,34.253692-95.469471,77-94.4-6.057549,27.667388-3.156461,66.88744,20.2,70c10.372413,2.758522,33.478982-22.64158,3.5-29.4-14.545887-51.786462,34.502552-94.022867,82.4-98.6c42.999321-8.532608,72.265097-25.666168,95.2-52.6c13.730294-6.416997,47.037625-15.009666,66.2-17.6" fill="none" stroke="#494949" stroke-width="4"/>
                        <path d="M942.3,867.8c59.139742,38.73258,191.60546,85.748525,264.9,94.1c64.913788,10.425606,186.00178,8.014049,242.56286-11.4c11.702944-2.417256,39.375102-18.052903,56.03714-28.5" fill="none" stroke="#494949" stroke-width="4"/>
                        <path d="M970.3,935.8c92.369102,44.502319,292.436514,58.524889,400.7,29.2" fill="none" stroke="#494949" stroke-width="4"/>
                        <path d="M969.8,952.9c80.041737,25.949456,241.215374,41.409633,323.8,25.4" fill="none" stroke="#494949" stroke-width="4"/>
                        <path d="M1515.1,1225c84.715656-61.510954,204.647459-150.259059,248.600977-172.035351" transform="translate(.000001 0.000001)" fill="none" stroke="#494949" stroke-width="4"/>
                        <path d="M1531.4,1188.9c9.798627-7.848019,24.650874-19.64727,32.4-22.7" fill="none" stroke="#494949" stroke-width="4"/>
                        <path d="M1591,1145.7c47.318219-40.262358,139.820499-104.899623,187.9-125.8" fill="none" stroke="#494949" stroke-width="4"/>
                        <path d="M1803,1009.8c12.644191-4.950799,39.430265-12.080707,53.7-14.1" fill="none" stroke="#494949" stroke-width="4"/>
                        <path d="M1439.9,1182.859768c19.437102-9.823266,49.887986-26.350941,59.6-36.309768" fill="none" stroke="#494949" stroke-width="4"/>
                        <path d="M1528.8,1127.9l60.7-44.2" fill="none" stroke="#494949" stroke-width="4"/>
                        <path d="M1612.7,1065.8c72.492052-60.889457,196.056351-132.896653,244-131.5" fill="none" stroke="#494949" stroke-width="4"/>
                        <path d="M1627,1078.5c58.956677-46.11693,159.060081-113.037057,205.6-118.2" fill="none" stroke="#494949" stroke-width="4"/>
                        <path d="M1619.7,1029.2l80.323628-59" fill="none" stroke="#494949" stroke-width="4"/>
                        <path d="M1659.861814,1017.4C1703.686763,977.862954,1789.703643,928.893043,1832.4,924" fill="none" stroke="#494949" stroke-width="4"/>
                        <path d="M1790.3,918.7c15.133497-17.501997,55.904906-42.719517,81.1-50.9" fill="none" stroke="#494949" stroke-width="4"/>
                        <path d="M1488.4,1177.288453c41.481293-28.975424,99.704848-68.738762,112.2-80.588453" transform="translate(0 0.000001)" fill="none" stroke="#494949" stroke-width="4"/>
                        <path d="M1483.8,1192c97.641662-65.419369,215.136712-155.827872,244.7-172.2c30.029043-22.082857,93.957023-48.241921,128.2-51.2" fill="none" stroke="#494949" stroke-width="4"/>
                        <path d="M1516.9,1103.9c23.196664-16.876439,57.810511-42.071052,69.6-48.9" fill="none" stroke="#494949" stroke-width="4"/>
                        <path d="M1533,1078.7c13.037861-11.159068,39.583418-30.845364,53.5-39.1" fill="none" stroke="#494949" stroke-width="4"/>
                        <path d="M1423.653906,1054.6L1436.3,1047.4" fill="none" stroke="#494949" stroke-width="4"/>
                        <path d="M1780.3,829.978076c17.997631-13.690152,58.328047-31.028497,81.2-33.778076" fill="none" stroke="#494949" stroke-width="4"/>
                        <path d="M1704.225391,888.5c32.49541-24.438227,100.583195-60.737266,136.774609-71.4" transform="translate(.000001 0)" fill="none" stroke="#494949" stroke-width="4"/>
                        <path d="M1455.5,1037.7c46.539632-25.621966,127.750403-79.100811,161.6-107.3" fill="none" stroke="#494949" stroke-width="4"/>
                        <path d="M1219.3,1224.700746c57.902694-16.320884,191.42629-79.245279,272.2-132.600746" fill="none" stroke="#494949" stroke-width="4"/>
                        <path d="M1296.8,1161.2c63.697173-26.923719,174.341045-83.642182,219.2-116.046606" fill="none" stroke="#494949" stroke-width="4"/>
                        <path d="M1639.40049,968.8C1713.888787,908.079082,1827.029527,844.089716,1866.2,840" fill="none" stroke="#494949" stroke-width="4"/>
                        <path d="M1378.8,1041.1c20.833586-4.311459,111.428343-54.339342,180.35-99.342178L1691,852.1" fill="none" stroke="#494949" stroke-width="4"/>
                        <path d="M1296.5,1005.2c43.147359-7.359293,118.932495-35.144389,153.26286-54.2-80.258623,35.166603-246.384423,52.765432-333.31286,43.9" fill="none" stroke="#494949" stroke-width="4"/>
                        <path d="M1283,1039.1c13.849364-8.051054,39.041042-10.058839,50.5,1.7c7.554526,9.288111,6.039262,22.604427-3.8,26.4-10.034208-.055576-11.670879-7.258014-5.2-13.7.794982-8.114897-15.129318-8.387736-25.7-9" fill="none" stroke="#494949" stroke-width="4"/>
                        <path d="M1314,1017.4c74.269182-20.421548,187.60643-74.427923,223.1-109.8" fill="none" stroke="#494949" stroke-width="4"/>
                        <path d="M1537.1,1026.8c17.469747-9.539116,48.361839-32.071077,62.4-44.8c92.803338-77.465313,230.79456-158.446088,271.9-155.2" fill="none" stroke="#494949" stroke-width="4"/>
                        <path d="M1317.3,1032.1c58.031542-18.792263,158.016672-63.1193,197.8-92.6c62.919609-45.076214,176.811411-119.387101,228-148.9c29.215998-17.873328,87.340605-40.206902,118.4-40.5-39.046256-5.817998-101.571786,11.455372-128.1,30.3L1537.1,907.6c-29.10953,17.360835-103.491962,37.628403-148.1,41.2-83.178783,13.546293-241.597666-4.205297-316.6-40.1-41.149307-13.63569-106.721551-48.437184-127.9-72.7" fill="none" stroke="#494949" stroke-width="4"/>
                        <path d="M1333.5,1040.3c58.607338-16.391816,164.866678-72.275384,214.3-109.5c70.421161-53.00395,196.596465-134.911776,257.4-155.4c14.707547-5.025249,42.517452-11.570414,56.3-11.9" fill="none" stroke="#494949" stroke-width="4"/>
                        <path d="M1280.1,1093.2c65.647036-14.365556,188.156082-72.52929,246-114.2l242.4-160.462463c28.216403-18.429662,79.98638-41.35724,104.04707-41.037538-38.972562-4.690783-114.445454,31.622972-156.44707,59.624469" transform="translate(0 0.000001)" fill="none" stroke="#494949" stroke-width="4"/>
                    </g>
                </svg>