<svg width="164" height="201" viewBox="0 0 164 201" fill="none" xmlns="http://www.w3.org/2000/svg">
<g clip-path="url(#clip0)">
<path d="M38.4999 23.9999C32.1999 24.7999 25.3999 25.7999 18.5999 26.9999C16.9999 27.2999 15.9999 27.3999 15.0999 27.3999C12.2999 27.3999 9.3999 24.4999 9.3999 23.8999C9.3999 23.3999 10.1999 23.0999 11.5999 23.0999C16.2999 23.0999 27.7999 21.7999 38.6999 20.1999V17.3999C38.6999 7.0999 37.8999 4.2999 36.8999 2.9999C36.2999 2.0999 35.8999 1.3999 35.8999 0.899902C35.8999 0.199902 36.3999 -0.100098 37.3999 -0.100098C38.2999 -0.100098 39.5999 0.199902 41.2999 0.899902C44.7999 2.3999 45.8999 3.4999 45.8999 5.0999C45.8999 5.7999 45.5999 6.6999 45.2999 7.6999C44.4999 9.3999 43.9999 9.6999 43.5999 19.4999C51.4999 18.3999 58.3999 17.2999 61.0999 16.6999C62.1999 16.3999 63.3999 16.3999 64.4999 16.3999C69.4999 16.3999 73.6999 19.1999 73.6999 20.8999C73.6999 21.8999 72.0999 22.5999 68.7999 22.5999C67.6999 22.5999 66.3999 22.4999 64.7999 22.2999C63.4999 22.0999 61.7999 21.9999 59.8999 21.9999C55.4999 21.9999 49.8999 22.3999 43.3999 23.0999L42.7999 35.4999C46.5999 34.9999 49.9999 34.4999 51.5999 34.1999C52.3999 33.9999 53.0999 33.8999 53.8999 33.8999C58.6999 33.8999 61.4999 36.4999 61.4999 37.5999C61.4999 38.4999 60.3999 39.0999 58.1999 39.0999C57.3999 39.0999 56.5999 39.0999 55.6999 38.8999C54.5999 38.6999 52.8999 38.5999 51.0999 38.5999C45.8999 38.5999 38.1999 39.2999 29.9999 40.9999C28.7999 41.2999 27.7999 41.3999 26.9999 41.3999C25.2999 41.3999 20.6999 39.5999 20.6999 38.4999C20.6999 38.0999 21.3999 37.6999 22.7999 37.5999C27.6999 37.1999 33.2999 36.5999 38.5999 35.8999L38.4999 23.9999ZM28.7999 74.3999C27.5999 74.3999 25.8999 71.7999 25.7999 68.9999C25.3999 62.2999 23.6999 55.8999 21.4999 52.4999C20.7999 51.3999 20.3999 50.4999 20.3999 49.9999C20.3999 49.4999 20.6999 49.1999 21.4999 49.1999C22.4999 49.1999 24.4999 49.6999 27.2999 50.7999C33.7999 50.5999 48.8999 48.1999 51.7999 47.0999C52.9999 46.6999 53.7999 46.3999 54.5999 46.3999C56.6999 46.3999 64.7999 50.5999 64.7999 52.7999C64.7999 53.3999 64.2999 53.8999 63.2999 54.3999C61.1999 55.3999 57.8999 59.9999 56.8999 63.7999C58.3999 65.2999 59.1999 66.2999 59.1999 66.8999C59.1999 67.6999 57.9999 67.8999 55.3999 67.9999C50.3999 68.2999 41.2999 68.8999 30.3999 69.6999C30.3999 73.3999 29.7999 74.2999 28.9999 74.4999H28.7999V74.3999ZM27.9999 53.5999C28.7999 56.7999 29.4999 61.0999 30.0999 66.8999C37.7999 65.8999 48.8999 64.0999 51.3999 63.3999C53.1999 61.0999 53.7999 53.7999 53.7999 52.9999C53.7999 51.4999 53.0999 50.7999 50.8999 50.7999C50.2999 50.7999 49.5999 50.8999 48.6999 50.9999L27.9999 53.5999Z" fill="white"/>
<path d="M106.5 59.9C106.5 61.9 106.3 64.9 104.8 64.9C103.7 64.9 102.3 61.5 101.8 55.5C100.6 39.5 97.4998 24 95.6998 21.5C94.7998 20.4 94.2998 19.4 94.2998 18.8C94.2998 18.4 94.5998 18.1 95.2998 18.1C96.2998 18.1 98.0998 18.7 100.9 20C143.1 14.2 143.9 14.1 146.7 12.9C147.3 12.6 147.9 12.5 148.5 12.5C151.2 12.5 160.2 17.7 160.2 19.7C160.2 20.1 159.9 20.6 159.4 21C157.1 23.1 155.9 26.1 155.6 29.1C155.3 32.5 153.9 44.6 153.4 50.2C152.6 58.3 150.7 61.3 148.8 63.3C146.6 65.6 145.1 66.8 144.1 66.8C143 66.8 142.4 65.4 141.8 62.6C140.7 56.6 139.2 55.7 136.3 55.7C135.3 55.7 127.4 56.1 125.2 56.5C120.7 57.1 110.9 58.2 106.4 58.4V59.9H106.5ZM122.5 38.9C119 39.4 116.2 39.7 114.1 39.7C110.2 39.7 109.2 38.7 109.2 38.2C109.2 37.9 109.9 37.6 111.2 37.3C114.1 36.9 118.5 36 122.4 35.2V33.6C122.4 27 121.9 22.8 120.7 20C117.5 20.3 114.5 20.9 112.5 21.2C108.2 22.1 105.5 22.5 102.9 22.5C104.4 34.1 105.8 48.3 106.2 55.9C110.3 55.4 116 54.5 122 53.5L122.5 38.9ZM134.2 51.6C135.5 51.4 136.6 51.3 137.5 51.3C139.8 51.3 140.9 52.2 142.2 54.4C143.2 56 143.9 56.7 144.6 56.7C145.3 56.7 145.8 55.9 146.1 54.5C148.1 44.8 149.7 31.7 149.7 21.6C149.7 18.9 147.7 17.8 144.2 17.8H143.4C141 17.9 132.8 18.8 125 19.5C128 20.9 128.7 21.6 128.7 22.6C128.7 22.9 128.7 23.1 128.6 23.4C128.3 25.2 127.6 30.2 127.4 34.2C134.6 32.3 136.6 32.2 137.8 32.2C140.4 32.2 142.1 33.3 142.1 34.3C142.1 35.3 139.6 36 127.2 38L126.7 52.8L134.2 51.6Z" fill="white"/>
<path d="M57.4999 191.4C43.6999 190.8 38.9999 186.6 38.7999 176.9V175.4C38.7999 172.1 38.9999 169.1 39.3999 166.3C39.6999 164.2 39.7999 162 39.7999 160C39.7999 156.8 39.4999 154 38.3999 152.8L29.7999 154C33.2999 156.8 34.5999 158.4 34.5999 159.5C34.5999 160.1 34.2999 160.5 33.5999 161.1C32.1999 162.1 29.6999 165.6 27.3999 168.8C16.6999 184 2.3999 186.5 0.799902 186.5C0.199902 186.5 -0.100098 186.3 -0.100098 186.1C-0.100098 185.7 0.299902 185.2 1.2999 184.7C22.9999 173.2 28.0999 159.1 28.0999 156C28.0999 155.4 27.9999 154.9 27.7999 154.3C27.4999 154.3 27.0999 154.4 26.7999 154.5C26.2999 156.2 25.7999 156.9 25.2999 156.9C24.4999 156.9 23.6999 155.1 22.6999 151.2C20.9999 145.1 18.2999 138.3 16.6999 136.1C15.6999 134.7 14.9999 133.7 14.9999 132.9C14.9999 132.3 15.4999 131.9 16.6999 131.9C17.9999 131.9 19.9999 132.3 22.8999 133.1C30.7999 132.8 40.9999 130 44.6999 128C45.4999 127.6 46.3999 127.3 47.5999 127.3C51.4999 127.3 59.9999 131.4 59.9999 133.4C59.9999 133.9 59.5999 134.4 58.7999 135C53.4999 138.4 49.8999 145.7 49.0999 147.9C50.3999 148.9 51.0999 149.8 51.0999 150.3C51.0999 150.9 50.1999 151.3 48.2999 151.4L40.5999 152.4C44.4999 154.7 46.0999 156.1 46.0999 158.1C46.0999 159.1 45.6999 160.2 44.9999 161.6C43.9999 163.3 43.2999 168.6 43.2999 173C43.2999 180.6 45.0999 184.8 55.4999 184.8C70.9999 184.8 72.1999 181.5 74.5999 170.7C74.9999 168.6 75.5999 167.6 76.0999 167.6C76.5999 167.6 76.8999 168.5 76.8999 170V171.8C76.8999 175.6 77.1999 179.7 77.9999 181.5C78.3999 182.4 78.5999 183.1 78.5999 183.7C78.5999 187.2 68.9999 191.4 59.0999 191.4H57.4999V191.4ZM47.6999 136.4C47.8999 135.6 47.9999 134.9 47.9999 134.3C47.9999 132.9 47.3999 132.3 46.0999 132.3C45.5999 132.3 40.6999 132.8 23.9999 136.3C24.5999 139.9 25.5999 144.9 27.0999 151.8C34.1999 150.8 41.0999 149.5 43.4999 149C45.0999 146.5 45.9999 143.7 47.6999 136.4Z" fill="white"/>
<path d="M149.1 160.7C144.3 160.7 137.3 161.3 130.8 162V188.4C130.8 192.7 130.4 200.1 127.9 200.1C126.2 200.1 124.5 194 124.5 192.2C124.5 191.1 124.7 189.9 125.3 188.1C126 185.9 126.7 179.7 127 167.6C119.3 179.3 101.7 190 95.1999 190C94.7999 190 94.5999 189.9 94.5999 189.7C94.5999 189.4 95.0999 188.9 96.2999 188.3C106.8 182.3 119.4 171.8 124.9 162.7C121.5 163 110.7 164.7 106.7 169.5C105.9 170.5 105 171 104.5 171C104 171 102.9 170.5 102.9 167.4C102.9 166 103.3 165 104.4 164.3C106.1 163.1 107 160.1 107 157.3C107 155.4 106.7 153.6 105.9 152.3C105.6 151.8 105.3 151.3 105.3 150.8C105.3 150.2 105.7 149.8 106.7 149.8C107.7 149.8 109 150.2 111 151.2C113.6 151.2 118.8 150.6 126.8 149.2C126.5 145.3 125.8 143.1 124.5 141L119.7 142C118.1 142.4 116.8 142.6 115.8 142.6C111.9 142.6 110.9 140.2 110.9 140.2C110.9 139.7 111.6 139.4 112.9 139.3H113.4C119.4 139.1 140.5 136.4 143.3 135.1C144.1 134.8 144.8 134.6 145.5 134.6C146.4 134.6 147.3 134.9 148.6 135.6C149.7 136.4 150.8 137 151.8 137.9C152.6 138.4 153 139 153 139.5C153 140 152.7 140.5 152 140.8C150 141.8 148.7 143.2 146.5 146.5C147.8 147.5 148.5 148.2 148.5 148.8C148.5 149.5 147.6 149.8 146 149.9C139.2 150.3 134.4 150.8 130.7 151.3V159.4C133 159.1 135.7 158.8 138.7 158.5C145.7 157.8 151.1 157.4 152.2 157C153 156.7 153.6 156.5 154.3 156.5C156.6 156.5 163.1 160.8 163.1 162.7C163.1 163.3 162.7 163.8 162 164.4C160.7 165.3 159.8 166.9 159 169.1C156 176.6 155.1 178.1 150.6 181.1C150.1 181.4 149.6 181.6 149.1 181.6C148.3 181.6 147.6 181.1 147.3 180.1C146.3 177.8 145 175.7 143.1 173.5C142.5 172.6 142.1 172 142.1 171.7C142.1 171.4 142.2 171.4 142.5 171.4C142.8 171.4 143.4 171.6 144.1 171.8C146.2 172.8 147.7 173.3 148.8 173.3C152.5 173.3 154.1 164.1 154.1 162.7C154.1 161.5 153.2 161 149.8 160.8H149.1V160.7ZM127 151.8C119.5 152.9 116.5 153.4 113.6 153.4C112.8 153.4 112 153.4 111.2 153.3C111.2 153.6 111.3 154.2 111.3 154.7C111.3 156.8 111 160 110.6 163.1C117.4 161.6 121.7 160.7 127.1 159.9C127.1 156.5 127.1 153.9 127 151.8ZM124.8 132.4C124.6 133.9 123.8 134.7 122.8 134.7C120.6 134.7 114.4 127.1 114.4 126C114.4 125.5 114.9 125.3 116 125.3H116.9C122.1 125.7 124.9 127.9 124.9 131.7V132.4H124.8ZM144.2 142.2C144.4 141.5 144.5 140.9 144.5 140.5C144.5 139.4 143.8 138.9 142 138.9H141.3C137.5 139 131.5 139.8 126.5 140.6C130.2 141.9 131.4 142.8 131.4 144.2C131.4 144.6 131.3 145.2 131.1 145.8C131 146.1 130.9 147.1 130.8 148.6C134.8 148.1 140.3 147.1 142.5 146.9L144.2 142.2ZM133.5 134.4C133.1 134.6 132.7 134.7 132.5 134.7C132.2 134.7 132.1 134.6 132.1 134.4C132.1 134.1 132.4 133.6 133.2 132.9C139.3 127.3 141.6 123.9 141.6 122.1V122C141.6 120.8 141.8 120 142.7 120C144.2 120 150.5 123.2 150.5 124.8C150.5 125.3 150 125.8 149.1 126.3C147.8 126.9 144.7 128.5 143.8 129.1C142.1 130.2 136.2 133.3 134.2 134.1L133.5 134.4Z" fill="white"/>
<path d="M14.9998 99.0999L11.4998 93.8999C11.2998 93.5999 10.7998 93.2999 10.3998 93.2999C10.2998 93.2999 10.2998 93.1999 10.2998 93.0999C10.2998 92.9999 10.2998 92.8999 10.3998 92.8999C10.8998 92.8999 11.3998 92.9999 12.0998 92.9999C12.7998 92.9999 13.4998 92.8999 14.0998 92.8999C14.1998 92.8999 14.1998 92.9999 14.1998 93.0999C14.1998 93.1999 14.1998 93.1999 14.0998 93.1999C13.2998 93.1999 12.8998 93.3999 12.8998 93.6999V93.7999L15.8998 98.2999L18.4998 94.2999C18.5998 94.1999 18.5998 93.9999 18.5998 93.8999C18.5998 93.4999 18.0998 93.1999 17.2998 93.1999C17.1998 93.1999 17.1998 93.0999 17.1998 93.0999C17.1998 92.9999 17.1998 92.8999 17.2998 92.8999C17.6998 92.8999 18.5998 92.9999 19.2998 92.9999C20.0998 92.9999 20.4998 92.8999 20.7998 92.8999C20.8998 92.8999 20.8998 92.9999 20.8998 92.9999C20.8998 93.0999 20.8998 93.1999 20.7998 93.1999C20.2998 93.1999 19.6998 93.6999 19.1998 94.3999L16.3998 98.5999V103.3C16.3998 103.7 17.0998 104.1 17.7998 104.1C17.8998 104.1 17.8998 104.2 17.8998 104.2C17.8998 104.3 17.7998 104.4 17.7998 104.4C17.2998 104.4 16.4998 104.3 15.6998 104.3C14.9998 104.3 14.1998 104.4 13.5998 104.4C13.4998 104.4 13.4998 104.3 13.4998 104.2C13.4998 104.1 13.4998 104.1 13.5998 104.1C14.2998 104.1 14.9998 103.7 14.9998 103.3V99.0999V99.0999Z" fill="white"/>
<path d="M22.3999 100.8C22.3999 98.3999 24.1999 96.8999 25.9999 96.8999C27.8999 96.8999 29.6999 98.2999 29.6999 100.8C29.6999 103.2 27.9999 104.7 25.9999 104.7C24.1999 104.7 22.3999 103.2 22.3999 100.8ZM28.3999 101.2C28.3999 99.1999 27.6999 97.3999 25.8999 97.3999C24.5999 97.3999 23.7999 98.3999 23.7999 100.4C23.7999 102.8 24.5999 104.3 26.2999 104.3C27.5999 104.2 28.3999 103.1 28.3999 101.2Z" fill="white"/>
<path d="M37.9998 99.2998C37.6998 98.3998 37.0998 97.3998 35.7998 97.3998C34.6998 97.3998 34.0998 97.8998 34.0998 98.5998C34.0998 99.1998 34.4998 99.4998 36.1998 100.1C37.7998 100.6 38.5998 101.3 38.5998 102.6C38.5998 103.9 37.5998 104.7 35.6998 104.7C34.3998 104.7 33.0998 104.3 33.0998 104.1V102.1C33.0998 102 33.1998 102 33.1998 102C33.1998 102 33.2998 102 33.2998 102.1C33.5998 103.5 34.3998 104.2 35.6998 104.2C36.5998 104.2 37.3998 103.8 37.3998 103C37.3998 101.9 36.6998 101.6 34.6998 100.9C33.4998 100.5 32.9998 99.8998 32.9998 98.8998C32.9998 97.8998 33.9998 96.9998 35.3998 96.9998C36.6998 96.9998 37.9998 97.3998 37.9998 97.5998V99.2998C37.9998 99.3998 37.8998 99.3998 37.8998 99.3998C37.9998 99.3998 37.9998 99.2998 37.9998 99.2998Z" fill="white"/>
<path d="M47.8999 99.6999C47.8999 98.3999 47.3999 97.5999 46.2999 97.5999C45.5999 97.5999 44.8999 98.0999 44.4999 98.5999V103.4C44.4999 103.9 44.5999 104.3 45.3999 104.3C45.4999 104.3 45.4999 104.4 45.4999 104.4C45.4999 104.5 45.3999 104.5 45.3999 104.5C44.9999 104.5 44.3999 104.4 43.8999 104.4C43.2999 104.4 42.7999 104.5 42.2999 104.5C42.1999 104.5 42.0999 104.4 42.0999 104.4C42.0999 104.3 42.1999 104.3 42.1999 104.3C42.9999 104.3 43.1999 103.8 43.1999 103.4V93.7999C43.1999 93.3999 43.1999 93.3999 42.3999 93.3999C42.2999 93.3999 42.2999 93.2999 42.2999 93.1999C42.2999 93.0999 42.2999 93.0999 42.3999 93.0999C42.8999 93.0999 43.7999 92.8999 44.1999 92.5999H44.2999C44.3999 92.5999 44.4999 92.5999 44.4999 92.6999V97.9999C44.9999 97.4999 45.6999 96.8999 46.6999 96.8999C48.4999 96.8999 49.1999 97.9999 49.1999 99.6999V103.4C49.1999 103.8 49.2999 104.3 50.1999 104.3C50.2999 104.3 50.2999 104.4 50.2999 104.4C50.2999 104.5 50.1999 104.5 50.0999 104.5C49.6999 104.5 49.0999 104.4 48.4999 104.4C47.8999 104.4 47.2999 104.5 46.8999 104.5C46.7999 104.5 46.6999 104.4 46.6999 104.3C46.6999 104.2 46.7999 104.2 46.8999 104.2C47.6999 104.2 47.7999 103.7 47.7999 103.3V99.6999H47.8999Z" fill="white"/>
<path d="M54.3999 98.1999C54.3999 97.7999 54.3999 97.6999 53.5999 97.6999C53.4999 97.6999 53.4999 97.5999 53.4999 97.4999C53.4999 97.3999 53.4999 97.3999 53.5999 97.3999C54.1999 97.3999 54.9999 97.1999 55.3999 96.8999H55.4999C55.5999 96.8999 55.6999 96.8999 55.6999 96.9999V103.3C55.6999 103.7 55.8999 104.2 56.5999 104.2C56.6999 104.2 56.6999 104.3 56.6999 104.3C56.6999 104.4 56.6999 104.4 56.5999 104.4C56.0999 104.4 55.5999 104.3 55.0999 104.3C54.5999 104.3 54.0999 104.4 53.5999 104.4C53.4999 104.4 53.3999 104.3 53.3999 104.3C53.3999 104.2 53.4999 104.2 53.4999 104.2C54.1999 104.2 54.3999 103.7 54.3999 103.3V98.1999ZM54.9999 94.9999C54.5999 94.9999 54.2999 94.6999 54.2999 94.1999C54.2999 93.6999 54.5999 93.3999 54.9999 93.3999C55.3999 93.3999 55.7999 93.6999 55.7999 94.1999C55.7999 94.6999 55.3999 94.9999 54.9999 94.9999Z" fill="white"/>
<path d="M65.4999 103.4C65.0999 104.1 64.3999 104.7 63.1999 104.7C61.4999 104.7 60.0999 103.3 60.0999 101C60.0999 98.5999 61.4999 96.9999 63.6999 96.9999C64.5999 96.9999 65.0999 97.2999 65.4999 97.5999V93.7999C65.4999 93.3999 65.4999 93.3999 64.6999 93.3999C64.5999 93.3999 64.5999 93.2999 64.5999 93.1999C64.5999 93.0999 64.5999 93.0999 64.6999 93.0999C65.1999 93.0999 66.0999 92.8999 66.4999 92.5999H66.5999C66.6999 92.5999 66.7999 92.5999 66.7999 92.6999V103.5C66.7999 103.9 66.9999 103.9 67.7999 103.9C67.8999 103.9 67.8999 104 67.8999 104.1C67.8999 104.2 67.8999 104.2 67.7999 104.2C67.2999 104.2 66.2999 104.4 65.8999 104.7C65.8999 104.7 65.8999 104.7 65.7999 104.7C65.6999 104.7 65.5999 104.6 65.5999 104.5V103.4H65.4999ZM65.4999 98.5999C65.2999 97.9999 64.6999 97.3999 63.6999 97.3999C62.0999 97.3999 61.3999 98.5999 61.3999 100.4C61.3999 102.9 62.2999 103.9 63.6999 103.9C64.7999 103.9 65.4999 103 65.4999 102V98.5999Z" fill="white"/>
<path d="M77.2998 102.9C77.2998 103.7 77.3998 104 77.6998 104C77.8998 104 78.0998 103.9 78.2998 103.6L78.3998 103.5C78.3998 103.5 78.4998 103.5 78.4998 103.6C78.4998 103.8 77.7998 104.7 77.0998 104.7C76.3998 104.7 76.0998 104.3 76.0998 103.5C75.5998 104.1 74.7998 104.7 73.3998 104.7C72.1998 104.7 71.2998 104.1 71.2998 102.8C71.2998 100.7 73.5998 100.2 75.9998 99.5998C75.9998 97.8998 75.8998 97.3998 74.7998 97.3998C73.7998 97.3998 73.1998 97.7998 72.7998 98.0998C72.4998 98.3998 72.3998 98.8998 72.2998 99.5998C72.2998 99.6998 72.1998 99.7998 72.0998 99.7998C71.9998 99.7998 71.9998 99.6998 71.9998 99.5998L71.6998 98.1998C71.6998 98.0998 71.6998 98.0998 71.6998 98.0998C71.6998 97.8998 72.7998 96.9998 74.8998 96.9998C76.2998 96.9998 77.1998 97.2998 77.1998 99.7998V102.9H77.2998ZM76.0998 100.2C73.6998 100.7 72.6998 101.6 72.6998 102.8C72.6998 103.6 73.1998 104 73.9998 104C74.8998 104 75.5998 103.6 76.0998 103.1V100.2V100.2Z" fill="white"/>
<path d="M84.5999 94.2999C84.5999 93.7999 84.3999 93.4999 83.3999 93.4999C83.2999 93.4999 83.2999 93.3999 83.2999 93.2999C83.2999 93.1999 83.3999 93.1999 83.4999 93.1999C85.6999 93.1999 86.8999 93.0999 88.4999 93.0999C90.3999 93.0999 91.4999 94.2999 91.4999 95.7999C91.4999 97.0999 90.5999 97.9999 89.2999 98.2999C91.0999 98.4999 92.2999 99.9999 92.2999 101.5C92.2999 103.4 91.0999 104.6 88.3999 104.6C87.3999 104.6 86.3999 104.5 85.5999 104.5C84.7999 104.5 83.6999 104.6 83.2999 104.6C83.1999 104.6 83.0999 104.5 83.0999 104.4C83.0999 104.3 83.1999 104.2 83.1999 104.2C83.8999 104.2 84.4999 103.7 84.4999 103.3V94.2999H84.5999ZM85.9999 97.8999C86.5999 97.8999 87.7999 97.9999 88.0999 97.9999C89.2999 97.9999 90.0999 97.1999 90.0999 95.7999C90.0999 94.3999 89.1999 93.4999 87.8999 93.4999C87.2999 93.4999 86.5999 93.5999 85.9999 93.5999V97.8999V97.8999ZM85.9999 103C85.9999 103.8 86.3999 104.1 87.9999 104.1C89.8999 104.1 90.8999 103.3 90.8999 101.4C90.8999 98.4999 88.4999 98.3999 86.8999 98.3999C86.3999 98.3999 85.9999 98.3999 85.9999 98.3999V103Z" fill="white"/>
<path d="M96.6998 98.1999C96.6998 97.7999 96.6998 97.6999 95.8998 97.6999C95.7998 97.6999 95.7998 97.5999 95.7998 97.4999C95.7998 97.3999 95.7998 97.3999 95.8998 97.3999C96.3998 97.3999 97.2998 97.1999 97.6998 96.8999C97.6998 96.8999 97.6998 96.8999 97.7998 96.8999C97.8998 96.8999 97.9998 96.8999 97.9998 96.9999V98.0999C98.6998 97.2999 99.4998 96.8999 100.5 96.8999C100.6 96.8999 100.7 96.8999 100.7 96.9999C100.7 97.3999 100.8 97.8999 100.9 98.2999C100.9 98.3999 100.8 98.3999 100.8 98.3999C100.7 98.3999 100.6 98.2999 100.6 98.2999C100.5 97.8999 100.2 97.6999 99.6998 97.6999C99.0998 97.6999 98.3998 98.1999 97.9998 98.6999V103.3C97.9998 103.8 98.2998 104.2 99.0998 104.2C99.1998 104.2 99.1998 104.3 99.1998 104.3C99.1998 104.4 99.0998 104.4 99.0998 104.4C98.6998 104.4 97.8998 104.3 97.3998 104.3C96.7998 104.3 96.3998 104.4 95.8998 104.4C95.7998 104.4 95.7998 104.3 95.7998 104.3C95.7998 104.2 95.8998 104.2 95.8998 104.2C96.6998 104.2 96.7998 103.7 96.7998 103.3V98.1999H96.6998Z" fill="white"/>
<path d="M103.8 100.8C103.8 98.3999 105.6 96.8999 107.4 96.8999C109.3 96.8999 111.1 98.2999 111.1 100.8C111.1 103.2 109.4 104.7 107.4 104.7C105.6 104.7 103.8 103.2 103.8 100.8ZM109.8 101.2C109.8 99.1999 109.1 97.3999 107.3 97.3999C106 97.3999 105.2 98.3999 105.2 100.4C105.2 102.8 106 104.3 107.7 104.3C109 104.2 109.8 103.1 109.8 101.2Z" fill="white"/>
<path d="M115.6 97.5998H114.5C114.3 97.5998 114.3 97.4998 114.3 97.2998C114.3 97.1998 114.4 97.0998 114.5 97.0998C115.5 97.0998 116.2 96.1998 116.3 95.1998C116.3 95.0998 116.4 94.9998 116.6 94.9998C116.7 94.9998 116.8 95.0998 116.8 95.1998V96.9998H118.4C118.5 96.9998 118.6 96.9998 118.6 97.1998C118.6 97.3998 118.5 97.4998 118.4 97.4998H116.8V103.1C116.8 103.7 117 104.1 117.5 104.1C117.9 104.1 118.3 104 118.6 103.8C118.7 103.8 118.7 103.7 118.7 103.7C118.7 103.7 118.8 103.7 118.8 103.8C118.8 103.8 118.8 103.9 118.7 103.9C118.4 104.3 117.9 104.7 117.1 104.7C116.2 104.7 115.6 104.2 115.6 103.2V97.5998Z" fill="white"/>
<path d="M127.6 99.6999C127.6 98.3999 127.1 97.5999 126 97.5999C125.3 97.5999 124.6 98.0999 124.2 98.5999V103.4C124.2 103.9 124.3 104.3 125.1 104.3C125.2 104.3 125.2 104.4 125.2 104.4C125.2 104.5 125.1 104.5 125.1 104.5C124.7 104.5 124.1 104.4 123.6 104.4C123 104.4 122.5 104.5 122 104.5C121.9 104.5 121.8 104.4 121.8 104.4C121.8 104.3 121.9 104.3 121.9 104.3C122.7 104.3 122.9 103.8 122.9 103.4V93.7999C122.9 93.3999 122.9 93.3999 122.1 93.3999C122 93.3999 122 93.2999 122 93.1999C122 93.0999 122 93.0999 122.1 93.0999C122.5 93.0999 123.5 92.8999 123.9 92.5999H124C124.1 92.5999 124.2 92.5999 124.2 92.6999V97.9999C124.7 97.4999 125.4 96.8999 126.4 96.8999C128.2 96.8999 128.9 97.9999 128.9 99.6999V103.4C128.9 103.8 129 104.3 129.9 104.3C130 104.3 130 104.4 130 104.4C130 104.5 129.9 104.5 129.8 104.5C129.4 104.5 128.8 104.4 128.2 104.4C127.6 104.4 127 104.5 126.6 104.5C126.5 104.5 126.4 104.4 126.4 104.3C126.4 104.2 126.5 104.2 126.6 104.2C127.4 104.2 127.5 103.7 127.5 103.3V99.6999H127.6Z" fill="white"/>
<path d="M134.5 100.4C134.5 102.9 135.5 104 136.8 104C138.1 104 138.8 103.3 139.3 102.4C139.4 102.3 139.4 102.3 139.5 102.3C139.6 102.3 139.6 102.3 139.6 102.4C139.6 102.5 139.2 104.7 136.6 104.7C134.8 104.7 133.3 103.4 133.3 101C133.3 98.6998 134.7 96.9998 136.7 96.9998C138.7 96.9998 139.7 98.4998 139.7 100.3C139.7 100.4 139.7 100.5 139.5 100.5H134.5V100.4ZM138.4 99.8998C138.4 98.2998 137.8 97.3998 136.6 97.3998C135.4 97.3998 134.7 98.2998 134.6 99.8998H138.4Z" fill="white"/>
<path d="M143.8 98.1999C143.8 97.7999 143.8 97.6999 143 97.6999C142.9 97.6999 142.9 97.5999 142.9 97.4999C142.9 97.3999 142.9 97.3999 143 97.3999C143.5 97.3999 144.4 97.1999 144.8 96.8999C144.8 96.8999 144.8 96.8999 144.9 96.8999C145 96.8999 145.1 96.8999 145.1 96.9999V98.0999C145.8 97.2999 146.6 96.8999 147.6 96.8999C147.7 96.8999 147.8 96.8999 147.8 96.9999C147.8 97.3999 147.9 97.8999 148 98.2999C148 98.3999 147.9 98.3999 147.9 98.3999C147.8 98.3999 147.7 98.2999 147.7 98.2999C147.6 97.8999 147.3 97.6999 146.8 97.6999C146.2 97.6999 145.5 98.1999 145.1 98.6999V103.3C145.1 103.8 145.4 104.2 146.2 104.2C146.3 104.2 146.3 104.3 146.3 104.3C146.3 104.4 146.2 104.4 146.2 104.4C145.8 104.4 145 104.3 144.5 104.3C143.9 104.3 143.5 104.4 143 104.4C142.9 104.4 142.9 104.3 142.9 104.3C142.9 104.2 143 104.2 143 104.2C143.8 104.2 143.9 103.7 143.9 103.3V98.1999H143.8Z" fill="white"/>
<path d="M156.3 99.2998C156 98.3998 155.4 97.3998 154.1 97.3998C153 97.3998 152.4 97.8998 152.4 98.5998C152.4 99.1998 152.8 99.4998 154.5 100.1C156.1 100.6 156.9 101.3 156.9 102.6C156.9 103.9 155.9 104.7 154 104.7C152.7 104.7 151.4 104.3 151.4 104.1V102.1C151.4 102 151.5 102 151.5 102C151.5 102 151.6 102 151.6 102.1C151.9 103.5 152.7 104.2 154 104.2C154.9 104.2 155.7 103.8 155.7 103C155.7 101.9 155 101.6 153 100.9C151.8 100.5 151.3 99.8998 151.3 98.8998C151.3 97.8998 152.3 96.9998 153.7 96.9998C155 96.9998 156.3 97.3998 156.3 97.5998V99.2998C156.3 99.3998 156.2 99.3998 156.2 99.3998C156.4 99.3998 156.3 99.2998 156.3 99.2998Z" fill="white"/>
</g>
<defs>
<clipPath id="clip0">
<rect width="163.2" height="200.1" fill="white"/>
</clipPath>
</defs>
</svg>
