<svg width="326" height="109" viewBox="0 0 326 109" fill="none" xmlns="http://www.w3.org/2000/svg">
<g clip-path="url(#clip0)">
<path d="M29.1 24C22.8 24.8 16 25.8 9.2 27C7.6 27.3 6.6 27.4 5.7 27.4C3 27.5 0 24.6 0 24C0 23.5 0.8 23.2 2.2 23.2C6.9 23.2 18.4 21.9 29.3 20.3V17.5C29.3 7.2 28.5 4.4 27.5 3.1C26.9 2.2 26.5 1.5 26.5 1C26.5 0.3 27 0 28 0C28.9 0 30.2 0.3 31.9 1C35.4 2.5 36.5 3.6 36.5 5.2C36.5 5.9 36.2 6.8 35.9 7.8C35.1 9.5 34.6 9.8 34.2 19.6C42.1 18.5 49 17.4 51.7 16.8C52.8 16.5 54 16.5 55.1 16.5C60.1 16.5 64.3 19.3 64.3 21C64.3 22 62.7 22.7 59.4 22.7C58.3 22.7 57 22.6 55.4 22.4C54.1 22.2 52.4 22.1 50.5 22.1C46.1 22.1 40.5 22.5 34 23.2L33.4 35.6C37.2 35.1 40.6 34.6 42.2 34.3C43 34.1 43.7 34 44.5 34C49.3 34 52.1 36.6 52.1 37.7C52.1 38.6 51 39.2 48.8 39.2C48 39.2 47.2 39.2 46.3 39C45.2 38.8 43.5 38.7 41.7 38.7C36.5 38.7 28.8 39.4 20.6 41.1C19.4 41.4 18.4 41.5 17.6 41.5C15.9 41.5 11.3 39.7 11.3 38.6C11.3 38.2 12 37.8 13.4 37.7C18.3 37.3 23.9 36.7 29.2 36L29.1 24ZM19.4 74.4C18.2 74.4 16.5 71.8 16.4 69C16 62.3 14.3 55.9 12.1 52.5C11.4 51.4 11 50.5 11 50C11 49.5 11.3 49.2 12.1 49.2C13.1 49.2 15.1 49.7 17.9 50.8C24.4 50.6 39.5 48.2 42.4 47.1C43.6 46.7 44.4 46.4 45.2 46.4C47.3 46.4 55.4 50.6 55.4 52.8C55.4 53.4 54.9 53.9 53.9 54.4C51.8 55.4 48.5 60 47.5 63.8C49 65.3 49.8 66.3 49.8 66.9C49.8 67.7 48.6 67.9 46 68C41 68.3 31.9 68.9 21 69.7C21 73.4 20.4 74.3 19.6 74.5H19.4V74.4ZM18.6 53.6C19.4 56.8 20.1 61.1 20.7 66.9C28.4 65.9 39.5 64.1 42 63.4C43.8 61.1 44.4 53.8 44.4 53C44.4 51.5 43.7 50.8 41.5 50.8C40.9 50.8 40.2 50.9 39.3 51L18.6 53.6Z" fill="white"/>
<path d="M95.4 59.9C95.4 61.9 95.2 64.9 93.7 64.9C92.6 64.9 91.2 61.5 90.7 55.5C89.5 39.5 86.4 24 84.6 21.5C83.7 20.4 83.2 19.4 83.2 18.8C83.2 18.4 83.5 18.1 84.2 18.1C85.2 18.1 87 18.7 89.8 20C132 14.2 132.8 14.1 135.6 12.9C136.2 12.6 136.8 12.5 137.4 12.5C140.1 12.5 149.1 17.7 149.1 19.7C149.1 20.1 148.8 20.6 148.3 21C146 23.1 144.8 26.1 144.5 29.1C144.2 32.5 142.8 44.6 142.3 50.2C141.5 58.3 139.6 61.3 137.7 63.3C135.5 65.6 134 66.8 133 66.8C131.9 66.8 131.3 65.4 130.7 62.6C129.6 56.6 128.1 55.7 125.2 55.7C124.2 55.7 116.3 56.1 114.1 56.5C109.6 57.1 99.8 58.2 95.3 58.4V59.9H95.4ZM111.4 38.9C107.9 39.4 105.1 39.7 103 39.7C99.1 39.7 98.1 38.7 98.1 38.2C98.1 37.9 98.8 37.6 100.1 37.3C103 36.9 107.4 36 111.3 35.2V33.6C111.3 27 110.8 22.8 109.6 20C106.4 20.3 103.4 20.9 101.4 21.2C97.1 22.1 94.4 22.5 91.8 22.5C93.3 34.1 94.7 48.3 95.1 55.9C99.2 55.4 104.9 54.5 110.9 53.5L111.4 38.9ZM123 51.6C124.3 51.4 125.4 51.3 126.3 51.3C128.6 51.3 129.7 52.2 131 54.4C132 56 132.7 56.7 133.4 56.7C134.1 56.7 134.6 55.9 134.9 54.5C136.9 44.8 138.5 31.7 138.5 21.6C138.5 18.9 136.5 17.8 133 17.8H132.2C129.8 17.9 121.6 18.8 113.8 19.5C116.8 20.9 117.5 21.6 117.5 22.6C117.5 22.9 117.5 23.1 117.4 23.4C117.1 25.2 116.4 30.2 116.2 34.2C123.4 32.3 125.4 32.2 126.6 32.2C129.2 32.2 130.9 33.3 130.9 34.3C130.9 35.3 128.4 36 116 38L115.5 52.8L123 51.6Z" fill="white"/>
<path d="M219.5 71.4C205.7 70.8 201 66.6001 200.8 56.9001V55.4001C200.8 52.1001 201 49.1 201.4 46.3C201.7 44.2 201.8 42 201.8 40C201.8 36.8 201.5 34 200.4 32.8L191.8 34C195.3 36.8 196.6 38.4 196.6 39.5C196.6 40.1 196.3 40.5 195.6 41.1C194.2 42.1 191.7 45.6 189.4 48.8C178.7 64 164.4 66.5 162.8 66.5C162.2 66.5 161.9 66.3 161.9 66.1C161.9 65.7 162.3 65.2 163.3 64.7C185 53.2 190.1 39.1 190.1 36C190.1 35.4 190 34.9 189.8 34.3C189.5 34.3 189.1 34.4 188.8 34.5C188.3 36.2 187.8 36.9001 187.3 36.9001C186.5 36.9001 185.7 35.1001 184.7 31.2001C183 25.1001 180.3 18.3 178.7 16.1C177.7 14.7 177 13.7 177 12.9C177 12.3 177.5 11.9 178.7 11.9C180 11.9 182 12.3 184.9 13.1C192.8 12.8 203 10 206.7 8.00005C207.5 7.60005 208.4 7.30005 209.6 7.30005C213.5 7.30005 222 11.4 222 13.4C222 13.9 221.6 14.4 220.8 15C215.5 18.4 211.9 25.7 211.1 27.9C212.4 28.9 213.1 29.8 213.1 30.3C213.1 30.9 212.2 31.3 210.3 31.4L202.6 32.4001C206.5 34.7001 208.1 36.1 208.1 38.1C208.1 39.1 207.7 40.2 207 41.6C206 43.3 205.3 48.6 205.3 53C205.3 60.6 207.1 64.8001 217.5 64.8001C233 64.8001 234.2 61.5001 236.6 50.7001C237 48.6001 237.6 47.6 238.1 47.6C238.6 47.6 238.9 48.5 238.9 50V51.8C238.9 55.6 239.2 59.7 240 61.5C240.4 62.4 240.6 63.1001 240.6 63.7001C240.6 67.2001 231 71.4 221.1 71.4H219.5ZM209.7 16.4C209.9 15.6 210 14.9 210 14.3C210 12.9 209.4 12.3 208.1 12.3C207.6 12.3 202.7 12.8 186 16.3C186.6 19.9 187.6 24.9 189.1 31.8C196.2 30.8 203.1 29.5 205.5 29C207.1 26.5 208 23.7 209.7 16.4Z" fill="white"/>
<path d="M311.1 40.7C306.3 40.7 299.3 41.3 292.8 42V68.4C292.8 72.8 292.4 80.1 289.9 80.1C288.2 80.1 286.5 74 286.5 72.2C286.5 71.1 286.7 69.9 287.3 68.1C288 65.9 288.7 59.7 289 47.6C281.3 59.3 263.7 70 257.3 70C256.9 70 256.7 69.9 256.7 69.7C256.7 69.4 257.2 68.9 258.4 68.3C268.9 62.3 281.5 51.8 287 42.7C283.6 43 272.8 44.7 268.8 49.5C268 50.5 267.1 51 266.6 51C266.1 51 265 50.5 265 47.4C265 46 265.4 45 266.5 44.3C268.2 43.1 269.1 40.1 269.1 37.3C269.1 35.4 268.8 33.6 268 32.3C267.7 31.8 267.4 31.3 267.4 30.8C267.4 30.2 267.8 29.8 268.8 29.8C269.8 29.8 271.1 30.2 273.1 31.2C275.7 31.2 280.9 30.6 288.9 29.2C288.6 25.3 287.9 23.1 286.6 21L281.8 22C280.2 22.4 278.9 22.6 277.9 22.6C274 22.6 273 20.2 273 20.2C273 19.7 273.7 19.4 275 19.3H275.5C281.5 19.1 302.6 16.4 305.4 15.1C306.2 14.8 306.9 14.6 307.6 14.6C308.5 14.6 309.4 14.9 310.7 15.6C311.8 16.4 312.9 17 313.9 17.9C314.7 18.4 315.1 19 315.1 19.5C315.1 20 314.8 20.5 314.1 20.8C312.1 21.8 310.8 23.2 308.6 26.5C309.9 27.5 310.6 28.2 310.6 28.8C310.6 29.5 309.7 29.8 308.1 29.9C301.3 30.3 296.5 30.8 292.8 31.3V39.4C295.1 39.1 297.8 38.8 300.8 38.5C307.8 37.8 313.2 37.4 314.3 37C315.1 36.7 315.7 36.5 316.4 36.5C318.7 36.5 325.2 40.8 325.2 42.7C325.2 43.3 324.8 43.8 324.1 44.4C322.8 45.3 321.9 46.9 321.1 49.1C318.1 56.6 317.2 58.1 312.7 61.1C312.2 61.4 311.7 61.6 311.2 61.6C310.4 61.6 309.7 61.1 309.4 60.1C308.4 57.8 307.1 55.7 305.2 53.5C304.6 52.6 304.2 52 304.2 51.7C304.2 51.4 304.3 51.4 304.6 51.4C304.9 51.4 305.5 51.6 306.2 51.8C308.3 52.8 309.8 53.3 310.9 53.3C314.6 53.3 316.2 44.1 316.2 42.7C316.2 41.5 315.3 41 311.9 40.8H311.1V40.7ZM289 31.8C281.5 32.9 278.5 33.4 275.6 33.4C274.8 33.4 274 33.4 273.2 33.3C273.2 33.6 273.3 34.2 273.3 34.7C273.3 36.8 273 40 272.6 43.1C279.4 41.6 283.7 40.7 289.1 39.9C289.1 36.5 289.1 33.9 289 31.8ZM286.8 12.4C286.6 13.9 285.8 14.7 284.8 14.7C282.6 14.7 276.4 7.1 276.4 6C276.4 5.5 276.9 5.3 278 5.3H278.9C284.1 5.7 286.9 7.9 286.9 11.7V12.4H286.8ZM306.2 22.2C306.4 21.5 306.5 20.9 306.5 20.5C306.5 19.4 305.8 18.9 304 18.9H303.3C299.5 19 293.5 19.8 288.5 20.6C292.2 21.9 293.4 22.8 293.4 24.2C293.4 24.6 293.3 25.2 293.1 25.8C293 26.1 292.9 27.1 292.8 28.6C296.8 28.1 302.3 27.1 304.5 26.9L306.2 22.2ZM295.5 14.4C295.1 14.6 294.7 14.7 294.5 14.7C294.2 14.7 294.1 14.6 294.1 14.4C294.1 14.1 294.4 13.6 295.2 12.9C301.3 7.3 303.6 3.9 303.6 2.1V2C303.6 0.8 303.8 0 304.7 0C306.2 0 312.5 3.2 312.5 4.8C312.5 5.3 312 5.8 311.1 6.3C309.8 6.9 306.7 8.5 305.8 9.1C304.1 10.2 298.2 13.3 296.2 14.1L295.5 14.4Z" fill="white"/>
<path d="M14.6 100.4L9.49995 92.8001C9.19995 92.3001 8.49995 92.0001 7.89995 92.0001C7.79995 92.0001 7.69995 91.9001 7.69995 91.8001C7.69995 91.7001 7.79995 91.6001 7.79995 91.6001C8.49995 91.6001 9.19995 91.8001 10.3 91.8001C11.3 91.8001 12.4 91.6001 13.2 91.6001C13.3 91.6001 13.4 91.8001 13.4 91.9001C13.4 92.0001 13.3 92.1001 13.2 92.1001C12.1 92.1001 11.5 92.4001 11.5 92.8001C11.5 92.9001 11.5 92.9001 11.6 93.0001L15.9 99.5001L19.6 93.8001C19.7 93.6001 19.8 93.4001 19.8 93.3001C19.8 92.7001 19 92.2001 17.9 92.2001C17.7 92.2001 17.7 92.1001 17.7 92.0001C17.7 91.9001 17.8 91.7001 17.9 91.7001C18.5 91.7001 19.8 91.9001 20.8 91.9001C21.9 91.9001 22.5 91.7001 23 91.7001C23.1 91.7001 23.2 91.8001 23.2 91.9001C23.2 92.0001 23.1 92.1001 23 92.1001C22.2 92.1001 21.4 92.8001 20.7 93.8001L16.6 99.9001V106.7C16.6 107.3 17.6 107.9 18.6 107.9C18.7 107.9 18.7 108 18.7 108.1C18.7 108.2 18.6 108.4 18.5 108.4C17.7 108.4 16.6 108.2 15.5 108.2C14.5 108.2 13.3 108.4 12.5 108.4C12.4 108.4 12.3 108.3 12.3 108.1C12.3 108 12.3 107.9 12.4 107.9C13.5 107.9 14.4 107.3 14.4 106.7V100.4H14.6Z" fill="white"/>
<path d="M30.8 102.8C30.8 99.3001 33.3 97.2001 36.1 97.2001C38.9 97.2001 41.4001 99.3001 41.4001 102.8C41.4001 106.3 38.9 108.4 36.1 108.4C33.4 108.4 30.8 106.3 30.8 102.8ZM39.4001 103.4C39.4001 100.5 38.4 97.9001 35.8 97.9001C33.9 97.9001 32.7001 99.3001 32.7001 102.2C32.7001 105.6 33.8001 107.8 36.4001 107.8C38.4001 107.7 39.4001 106.1 39.4001 103.4Z" fill="white"/>
<path d="M58.7 100.5C58.2 99.1001 57.4 97.8001 55.5 97.8001C53.9 97.8001 53.0999 98.6001 53.0999 99.5001C53.0999 100.4 53.5999 100.8 56.0999 101.7C58.3999 102.5 59.5999 103.5 59.5999 105.4C59.5999 107.3 58.1 108.4 55.4 108.4C53.5 108.4 51.7 107.8 51.7 107.5V104.6C51.7 104.5 51.8 104.5 51.9 104.5C52 104.5 52 104.5 52 104.6C52.4 106.5 53.6 107.7 55.5 107.7C56.9 107.7 58 107.2 58 106C58 104.4 56.9999 103.9 54.0999 102.9C52.3999 102.3 51.7 101.4 51.7 100C51.7 98.5001 53.1 97.2001 55.2 97.2001C57.1 97.2001 58.9 97.7001 58.9 98.0001V100.5C58.9 100.6 58.8 100.7 58.7 100.7C58.7 100.7 58.5999 100.7 58.5999 100.6L58.7 100.5Z" fill="white"/>
<path d="M79.1 101.1C79.1 99.3 78.4 98.1 76.8 98.1C75.8 98.1 74.7 98.9 74.2 99.6V106.5C74.2 107.2 74.4 107.8 75.5 107.8C75.6 107.8 75.7 107.9 75.7 108C75.7 108.1 75.6 108.2 75.5 108.2C74.9 108.2 74.1 108.1 73.3 108.1C72.5 108.1 71.7 108.2 71 108.2C70.8 108.2 70.8 108.1 70.8 108C70.8 107.9 70.9 107.8 71 107.8C72.2 107.8 72.4 107.1 72.4 106.5V92.6C72.4 92 72.4 92 71.2 92C71 92 71 91.9 71 91.7C71 91.6 71.1 91.5 71.1 91.5C71.7 91.5 73.2 91.2 73.7 90.8H73.8C73.9 90.8 74.1 90.9 74.1 91V98.8C74.8 98 75.9 97.2 77.3 97.2C79.9 97.2 80.9 98.8 80.9 101.2V106.5C80.9 107.1 81.1 107.8 82.3 107.8C82.4 107.8 82.5 107.9 82.5 108C82.5 108.1 82.4 108.2 82.3 108.2C81.7 108.2 80.8 108.1 80 108.1C79.1 108.1 78.3 108.2 77.7 108.2C77.5 108.2 77.4 108.1 77.4 108C77.4 107.9 77.5 107.8 77.6 107.8C78.8 107.8 79 107.1 79 106.5V101.1H79.1Z" fill="white"/>
<path d="M94.4999 99C94.4999 98.4 94.3999 98.4 93.2999 98.4C93.1999 98.4 93.0999 98.3 93.0999 98.1C93.0999 98 93.0999 97.9 93.1999 97.9C93.9999 97.9 95.2999 97.6 95.7999 97.2H95.8999C95.9999 97.2 96.1999 97.3 96.1999 97.4V106.4C96.1999 107 96.4999 107.7 97.5999 107.7C97.6999 107.7 97.7999 107.8 97.7999 107.9C97.7999 108 97.6999 108.1 97.5999 108.1C96.9999 108.1 96.1999 108 95.3999 108C94.5999 108 93.8999 108.1 93.2999 108.1C93.0999 108.1 93.0999 108 93.0999 107.9C93.0999 107.8 93.1999 107.7 93.2999 107.7C94.2999 107.7 94.5999 107 94.5999 106.4V99H94.4999ZM95.1999 94.5C94.5999 94.5 94.0999 94 94.0999 93.4C94.0999 92.8 94.5999 92.3 95.1999 92.3C95.7999 92.3 96.2999 92.8 96.2999 93.4C96.2999 94 95.7999 94.5 95.1999 94.5Z" fill="white"/>
<path d="M116.4 106.6C115.9 107.6 114.9 108.4 113 108.4C110.6 108.4 108.5 106.4 108.5 103C108.5 99.6 110.5 97.2 113.8 97.2C115.1 97.2 115.9 97.7 116.3 98.1V92.6C116.3 92 116.2 92 115.1 92C115 92 114.9 91.9 114.9 91.7C114.9 91.6 115 91.5 115 91.5C115.6 91.5 117 91.2 117.6 90.8H117.7C117.8 90.8 118 90.9 118 91V106.6C118 107.2 118.2 107.2 119.4 107.2C119.5 107.2 119.6 107.3 119.6 107.5C119.6 107.6 119.5 107.7 119.5 107.7C118.9 107.7 117.3 108 116.7 108.4H116.6C116.5 108.4 116.3 108.3 116.3 108.2V106.6H116.4ZM116.4 99.7C116.1 98.8 115.2 98 113.8 98C111.5 98 110.4 99.7 110.4 102.4C110.4 106 111.7 107.5 113.8 107.5C115.4 107.5 116.4 106.2 116.4 104.7V99.7Z" fill="white"/>
<path d="M139.5 105.8C139.5 106.9 139.7 107.3 140.1 107.3C140.4 107.3 140.7 107.1 141 106.8C141.1 106.7 141.1 106.7 141.2 106.7C141.3 106.7 141.3 106.7 141.3 106.8C141.3 107.1 140.3 108.4 139.3 108.4C138.3 108.4 137.8 107.9 137.8 106.7C137 107.6 135.9 108.4 133.9 108.4C132.1 108.4 130.9 107.5 130.9 105.6C130.9 102.5 134.2 101.8 137.6 101C137.6 98.5 137.4 97.8 135.9 97.8C134.5 97.8 133.6 98.4 133 98.8C132.6 99.2 132.4 100 132.3 101C132.3 101.1 132.2 101.2 132.1 101.2C132 101.2 131.9 101.1 131.9 100.9L131.5 98.8C131.5 98.7 131.5 98.7 131.5 98.6C131.5 98.3 133.1 97 136.1 97C138.1 97 139.5 97.4 139.5 101V105.8ZM137.8 101.9C134.3 102.7 132.9 103.9 132.9 105.6C132.9 106.7 133.7 107.4 134.8 107.4C136.1 107.4 137.1 106.8 137.8 106V101.9Z" fill="white"/>
<path d="M160.2 93.4001C160.2 92.7001 159.9 92.3001 158.5 92.2001C158.4 92.2001 158.3 92.1001 158.3 91.9001C158.3 91.8001 158.4 91.7001 158.5 91.7001C161.6 91.7001 163.4 91.6001 165.8 91.6001C168.6 91.6001 170.2 93.4001 170.2 95.5001C170.2 97.4001 168.8 98.7001 167.1 99.1001C169.8 99.4001 171.4 101.5 171.4 103.7C171.4 106.5 169.7 108.2 165.7 108.2C164.3 108.2 162.8 108 161.7 108C160.6 108 159 108.2 158.4 108.2C158.2 108.2 158.2 108.1 158.2 108C158.2 107.9 158.3 107.8 158.4 107.8C159.5 107.8 160.3 107 160.3 106.4V93.4001H160.2ZM162.2 98.6001C163 98.7001 164.8 98.7001 165.2 98.7001C167 98.7001 168.1 97.6001 168.1 95.6001C168.1 93.6001 166.8 92.3001 164.8 92.3001C163.9 92.3001 162.9 92.4001 162.1 92.5001V98.6001H162.2ZM162.2 106C162.2 107.2 162.7 107.6 165.1 107.6C167.9 107.6 169.2 106.5 169.2 103.7C169.2 99.5001 165.7 99.4001 163.4 99.4001C162.7 99.4001 162.2 99.4001 162.2 99.4001V106Z" fill="white"/>
<path d="M183 99.0001C183 98.4001 182.9 98.4001 181.8 98.4001C181.7 98.4001 181.6 98.3001 181.6 98.1001C181.6 98.0001 181.6 97.9001 181.7 97.9001C182.4 97.9001 183.8 97.6001 184.3 97.2001H184.4C184.5 97.2001 184.7 97.3001 184.7 97.4001V99.0001C185.7 97.9001 186.8 97.2001 188.3 97.2001C188.4 97.2001 188.6 97.2001 188.6 97.4001C188.7 98.0001 188.8 98.7001 188.9 99.3001V99.4001C188.9 99.5001 188.8 99.6001 188.7 99.6001C188.6 99.6001 188.5 99.5001 188.4 99.4001C188.2 98.9001 187.8 98.5001 187.1 98.5001C186.2 98.5001 185.2 99.1001 184.7 99.9001V106.6C184.7 107.3 185.1 107.9 186.3 107.9C186.4 107.9 186.5 108 186.5 108.1C186.5 108.2 186.4 108.3 186.3 108.3C185.7 108.3 184.6 108.2 183.8 108.2C183 108.2 182.3 108.3 181.6 108.3C181.5 108.3 181.4 108.2 181.4 108.1C181.4 108.1 181.4 108.1 181.4 108C181.4 107.9 181.5 107.8 181.6 107.8C182.8 107.8 183 107.1 183 106.5V99.0001V99.0001Z" fill="white"/>
<path d="M198.3 102.8C198.3 99.3001 200.8 97.2001 203.6 97.2001C206.4 97.2001 208.9 99.3001 208.9 102.8C208.9 106.3 206.4 108.4 203.6 108.4C200.9 108.4 198.3 106.3 198.3 102.8ZM206.9 103.4C206.9 100.5 205.9 97.9001 203.3 97.9001C201.4 97.9001 200.2 99.3001 200.2 102.2C200.2 105.6 201.3 107.8 203.9 107.8C205.8 107.7 206.9 106.1 206.9 103.4Z" fill="white"/>
<path d="M220.8 98.1H219.2C218.9 98.1 218.9 97.9 218.9 97.7C218.9 97.6 219 97.5 219.2 97.5C220.7 97.5 221.6 96.2 221.8 94.7C221.8 94.6 222 94.4 222.2 94.4C222.4 94.4 222.5 94.6 222.5 94.7V97.3H224.8C225 97.3 225 97.3 225 97.6C225 97.9 224.9 98 224.8 98H222.5V106.1C222.5 107 222.8 107.5 223.6 107.5C224.2 107.5 224.7 107.4 225.1 107C225.2 106.9 225.2 106.9 225.3 106.9C225.4 106.9 225.4 107 225.4 107C225.4 107.1 225.4 107.1 225.3 107.2C224.8 107.8 224.2 108.3 223 108.3C221.7 108.3 220.8 107.6 220.8 106.1V98.1Z" fill="white"/>
<path d="M244.6 101.1C244.6 99.3 243.9 98.1 242.3 98.1C241.3 98.1 240.2 98.9 239.7 99.6V106.5C239.7 107.2 239.9 107.8 241 107.8C241.1 107.8 241.2 107.9 241.2 108C241.2 108.1 241.1 108.2 241 108.2C240.4 108.2 239.6 108.1 238.8 108.1C238 108.1 237.2 108.2 236.5 108.2C236.3 108.2 236.3 108.1 236.3 108C236.3 107.9 236.4 107.8 236.5 107.8C237.7 107.8 237.9 107.1 237.9 106.5V92.6C237.9 92 237.9 92 236.7 92C236.6 92 236.5 91.9 236.5 91.7C236.5 91.6 236.6 91.5 236.6 91.5C237.3 91.5 238.7 91.2 239.2 90.8H239.3C239.4 90.8 239.6 90.9 239.6 91V98.8C240.2 98 241.4 97.2 242.8 97.2C245.4 97.2 246.4 98.8 246.4 101.2V106.5C246.4 107.1 246.6 107.8 247.8 107.8C247.9 107.8 248 107.9 248 108C248 108.1 247.9 108.2 247.8 108.2C247.2 108.2 246.3 108.1 245.5 108.1C244.6 108.1 243.8 108.2 243.2 108.2C243 108.2 242.9 108.1 242.9 108C242.9 107.9 243 107.8 243.1 107.8C244.3 107.8 244.5 107.1 244.5 106.5V101.1H244.6Z" fill="white"/>
<path d="M260.6 102.2C260.6 105.8 262 107.4 264 107.4C265.8 107.4 266.9 106.3 267.6 105C267.7 104.9 267.8 104.8 267.8 104.8C267.8 104.8 267.9 104.9 267.9 105C267.9 105.1 267.3 108.4 263.6 108.4C261 108.4 258.8 106.6 258.8 103C258.8 99.7001 260.8 97.2001 263.8 97.2001C266.6 97.2001 268.1 99.4001 268.1 101.9C268.1 102 268.1 102.2 267.8 102.2H260.6ZM266.2 101.5C266.2 99.2001 265.4 97.9001 263.5 97.9001C261.7 97.9001 260.8 99.3001 260.6 101.5H266.2Z" fill="white"/>
<path d="M280 99.0001C280 98.4001 279.9 98.4001 278.8 98.4001C278.7 98.4001 278.6 98.3001 278.6 98.1001C278.6 98.0001 278.6 97.9001 278.7 97.9001C279.4 97.9001 280.8 97.6001 281.3 97.2001H281.4C281.5 97.2001 281.7 97.3001 281.7 97.4001V99.0001C282.7 97.9001 283.8 97.2001 285.3 97.2001C285.4 97.2001 285.6 97.2001 285.6 97.4001C285.7 98.0001 285.8 98.7001 285.9 99.3001V99.4001C285.9 99.5001 285.8 99.6001 285.7 99.6001C285.6 99.6001 285.5 99.5001 285.4 99.4001C285.2 98.9001 284.8 98.5001 284.1 98.5001C283.2 98.5001 282.2 99.1001 281.7 99.9001V106.6C281.7 107.3 282.1 107.9 283.3 107.9C283.4 107.9 283.5 108 283.5 108.1C283.5 108.2 283.4 108.3 283.3 108.3C282.7 108.3 281.6 108.2 280.8 108.2C280 108.2 279.3 108.3 278.6 108.3C278.5 108.3 278.4 108.2 278.4 108.1C278.4 108.1 278.4 108.1 278.4 108C278.4 107.9 278.5 107.8 278.6 107.8C279.8 107.8 280 107.1 280 106.5V99.0001V99.0001Z" fill="white"/>
<path d="M303.5 100.5C303 99.1001 302.2 97.8001 300.3 97.8001C298.7 97.8001 297.9 98.6001 297.9 99.5001C297.9 100.4 298.4 100.8 300.9 101.7C303.2 102.5 304.4 103.5 304.4 105.4C304.4 107.3 302.9 108.4 300.2 108.4C298.3 108.4 296.5 107.8 296.5 107.5V104.6C296.5 104.5 296.6 104.5 296.7 104.5C296.8 104.5 296.8 104.5 296.8 104.6C297.2 106.5 298.4 107.7 300.3 107.7C301.7 107.7 302.8 107.2 302.8 106C302.8 104.4 301.8 103.9 298.9 102.9C297.2 102.3 296.5 101.4 296.5 100C296.5 98.5001 297.9 97.2001 300 97.2001C301.9 97.2001 303.7 97.7001 303.7 98.0001V100.5C303.7 100.6 303.6 100.7 303.5 100.7C303.5 100.7 303.4 100.7 303.4 100.6L303.5 100.5Z" fill="white"/>
</g>
<defs>
<clipPath id="clip0">
<rect width="325.2" height="108.5" fill="white"/>
</clipPath>
</defs>
</svg>
