<svg id="eO0PJrkYB7b1" xmlns="http://www.w3.org/2000/svg" xmlns:xlink="http://www.w3.org/1999/xlink" viewBox="0 0 24 24" shape-rendering="geometricPrecision" text-rendering="geometricPrecision"><path d="M12,2.03998c-5.5,0-10,4.49-10,10.02002c0,5,3.66,9.15,8.44,9.9v-7h-2.54v-2.9h2.54v-2.21002c0-2.51,1.49-3.89,3.78-3.89c1.09,0,2.23.19,2.23.19v2.47h-1.26c-1.24,0-1.63.77-1.63,1.56002v1.88h2.78l-.45,2.9h-2.33v7c2.3564-.3722,4.5022-1.5745,6.0499-3.39s2.3955-4.1244,2.3901-6.51C22,6.52998,17.5,2.03998,12,2.03998Z" fill="#007bff" stroke-width="0.1"/><path d="M10.44,21.96v-7h-2.54v-2.9l2.54-.06001v-2.819432c-.032254-1.470345,1.456451-3.135154,3.12-3.220578.81075.009987,2.25575.088701,2.89.19v2.47h-1.26c-1.042907-.081944-1.558676.669071-1.63,1.23v2.21002l2.78-.06001L15.89,14.96h-2.33v7h-3.12Z" fill="#fff" stroke-width="0.1"/></svg>
