<svg id="eDzpkhOYCUo1" xmlns="http://www.w3.org/2000/svg" xmlns:xlink="http://www.w3.org/1999/xlink" viewBox="0 0 32 32" shape-rendering="geometricPrecision" text-rendering="geometricPrecision"><path d="M24.849,14.35c-3.206-1.616-6.988-2.563-10.991-2.563-2.278,0-4.484.306-6.58.881l.174-.041c-.123.04-.265.063-.412.063-.76,0-1.377-.616-1.377-1.377c0-.613.401-1.132.954-1.311l.01-.003c5.323-1.575,14.096-1.275,19.646,2.026.426.258.706.719.706,1.245c0,.259-.068.502-.186.712l.004-.007c-.29.345-.721.563-1.204.563-.273,0-.529-.07-.752-.192l.008.004Zm-.15,4.199c-.201.332-.561.55-.971.55-.225,0-.434-.065-.61-.178l.005.003c-2.739-1.567-6.021-2.49-9.518-2.49-1.925,0-3.784.28-5.539.801l.137-.035c-.101.032-.217.051-.337.051-.629,0-1.139-.51-1.139-1.139c0-.509.333-.939.793-1.086l.008-.002c1.804-.535,3.878-.843,6.023-.843c3.989,0,7.73,1.064,10.953,2.925l-.106-.056c.297.191.491.52.491.894c0,.227-.071.437-.192.609l.002-.003Zm-1.8,4.124c-.157.272-.446.452-.777.452-.186,0-.359-.057-.502-.154l.003.002c-2.393-1.346-5.254-2.139-8.299-2.139-1.746,0-3.432.261-5.02.745l.122-.032c-.067.017-.145.028-.224.028-.512,0-.927-.415-.927-.927c0-.432.296-.795.696-.898l.006-.001c1.581-.47,3.397-.74,5.276-.74c3.402,0,6.596.886,9.366,2.44l-.097-.05c.302.15.506.456.506.809c0,.172-.048.333-.132.469l.002-.004ZM16,1.004c0,0,0,0,0,0C7.718,1.004,1.004,7.718,1.004,16s6.714,14.996,14.996,14.996s14.996-6.714,14.996-14.996v0C30.971,7.728,24.272,1.029,16.003,1.004h-.002Z" fill="#00dc14"/><path d="M6.617,9.999c7.128808-2.089933,16.205308-.407177,19.656,2.026c1.412237.787635.70077,3.367681-1.384,2.513-3.26968-1.90813-10.395554-3.724211-17.437-1.911-2.027711.505319-2.466903-2.075487-.835-2.628Z" fill="#fff" stroke-width="0.1"/><path d="M7.452,15.024c4.966151-1.624439,12.60697-.887267,17.052,2.082c1.071752.81846-.063738,2.593084-1.381,1.815-4.41887-2.470316-10.706633-2.955492-15.057-1.686-1.451745.201184-1.863077-1.602375-.614-2.211Z" fill="#fff" stroke-width="0.1"/><path d="M7.866,19.75c4.51042-1.441792,10.574915-.799375,14.656,1.649c1.372135.819591-.069937,2.215659-.899,1.574-3.626494-2.055474-8.968782-2.797382-13.197-1.398-.674516.220394-1.974892-.918219-.56-1.825Z" fill="#fff" stroke-width="0.1"/></svg>
