<svg id="ezLy6xCh8qr1" xmlns="http://www.w3.org/2000/svg" xmlns:xlink="http://www.w3.org/1999/xlink" viewBox="0 0 24 24" shape-rendering="geometricPrecision" text-rendering="geometricPrecision"><path d="M19.83,8.00001c0,.17,0,.35,0,.52.0093,1.51019-.2813,3.00719-.8549,4.40419-.5737,1.397-1.4189,2.6662-2.4868,3.7341s-2.3371,1.9131-3.7341,2.4868-2.89403.8642-4.40421.8549c-2.19786.0064-4.35079-.6221-6.2-1.81.33,0,.64,0,1,0c1.81346,0,3.57434-.6092,5-1.73-.84506-.0076-1.66602-.2826-2.3451-.7856s-1.1814-1.2082-1.4349-2.0144c.25465.0406.51214.0607.77.06.35715-.0026.71282-.0462,1.06-.13-.90349-.1844-1.71551-.6753-2.29864-1.3897s-.90154-1.6082-.90136-2.53029c.55909.3084,1.18207.48299,1.82.50999-.56288-.37233-1.02406-.87911-1.34184-1.4745s-.48211-1.26061-.47816-1.93549c.00125-.70252.1875-1.39232.54-2C4.55172,6.01766,5.81423,7.03889,7.24575,7.76757s3.00015,1.14856,4.60425,1.23244c-.0635-.30264-.097-.61079-.1-.92-.0261-.82312.2026-1.63423.6547-2.32255s1.1057-1.22032,1.8715-1.52335s1.6064-.3623,2.4071-.16974s1.5224.62758,2.0667,1.24564c.905-.18179,1.7714-.5202,2.56-1-.3012.93316-.9346,1.72319-1.78,2.22.8037-.08685,1.5894-.29593,2.33-.62-.5484.80096-1.2239,1.50693-2,2.09h-.03Z" fill="#00d1ff"/></svg>
