<svg id="elGSspnPUxN1" xmlns="http://www.w3.org/2000/svg" xmlns:xlink="http://www.w3.org/1999/xlink" viewBox="0 0 32 32" shape-rendering="geometricPrecision" text-rendering="geometricPrecision"><path d="M6.799,17.7c-.035642-1.26991,1.172408-2.739873,2.6-2.802h13.103c1.450658.074745,2.730211,1.531809,2.708608,2.802L25.201,24.303c.068826,1.350457-1.367182,2.612449-2.699,2.697h-13.103c-1.309021-.151721-2.668594-1.449159-2.6-2.697v-6.603Z" fill="#ff3232" stroke="#3f5787" stroke-width="0"/><path d="M18.206,7.4h1.198v4.599c.1427.76054.95669.558883.992,0v-4.698h1.104v5.998h-1.401l-.003-.498c-.664514,1.041791-1.602727.904962-1.89-.199v-5.202Z" stroke="#3f5787" stroke-width="0"/><path d="M14.7,8.798c.127602-1.397602,2.011173-1.527248,2.299,0v3.201c-.054804,1.319493-1.970483,1.682334-2.299,0v-3.201Z" fill="none" stroke="#000"/><path d="M9.6,5h1.399L11.9,8.001L12.697,5h1.504L12.6,9.001v4.599h-1.3v-4.599L9.6,5Z" stroke-width="0"/><path d="M21.104,22.102h2.191v-2.502c-.57994-1.446602-3.036671-1.253946-3.196.841896L20.096,23.202c.244869,2.323825,3.103857,2.412848,3.199,0v-.402h-.99v.796c-.132341.483763-.989879.633703-1.201,0v-1.494Z" fill="#fff" stroke="#3f5787" stroke-width="0"/><path d="M8.1,17.103h4.1v.992h-1.501v6.809l-1.3.09v-6.899h-1.299v-.992Z" fill="#fff" stroke="#3f5787" stroke-width="0"/><path d="M11.998,18.996h1.3v4.6c.139881.459438.626293.320876.7,0v-4.492h1.202v5.693h-.999l-.001-.795c-.356647.77826-1.90247,1.35399-2.202.195v-5.201Z" fill="#fff" stroke="#3f5787" stroke-width="0"/><path d="M16,16.999h1.3v2.299c.724777-.729776,1.78505-.721935,1.998.705v3.593c-.109655,1.40279-1.168075,1.794881-2.195.707l-.104.495h-.999v-7.799Z" fill="#fff" stroke="#3f5787" stroke-width="0"/><path d="M21.2,21.104h1.302v-.904c-.363781-.589726-1.00972-.531531-1.302,0v.904Z" fill="#ff3232" stroke="#3f5787" stroke-width="0"/><path d="M17.195,23.503c.051723.717545,1.218149.650945,1.202-.001v-3.499c-.167187-.555155-1.039162-.51767-1.202,0v3.5Z" fill="#ff3232" stroke="#3f5787" stroke-width="0"/></svg>
